<svg width="1036" height="599" viewBox="0 0 1036 599" fill="none" xmlns="http://www.w3.org/2000/svg">
<g opacity="0.3" filter="url(#filter0_f_5_156)">
<path d="M689.793 232.289C783.773 286.548 783.773 374.52 689.793 428.78C595.813 483.039 443.441 483.039 349.461 428.78C255.481 374.52 255.481 286.548 349.461 232.289C443.441 178.029 595.813 178.029 689.793 232.289ZM434.544 379.657C481.534 406.787 557.72 406.787 604.71 379.657C651.7 352.527 651.7 308.541 604.71 281.411C557.72 254.282 481.534 254.282 434.544 281.411C387.554 308.541 387.554 352.527 434.544 379.657Z" fill="url(#paint0_linear_5_156)"/>
</g>
<g opacity="0.3" filter="url(#filter1_f_5_156)">
<path d="M282.341 353.665C290.802 382.597 314.91 409.239 351.21 429.774C387.51 450.309 434.138 463.682 484.412 467.976L502.022 399.254C476.886 397.107 453.572 390.421 435.422 380.153C417.272 369.886 405.218 356.564 400.987 342.099L341.665 327.524L282.341 353.665Z" fill="url(#paint1_linear_5_156)"/>
</g>
<g opacity="0.3" filter="url(#filter2_f_5_156)">
<path d="M482.35 467.793C532.557 472.339 583.968 467.591 629.214 454.231C674.461 440.871 711.22 419.583 734.223 393.42L626.93 361.975C615.428 375.057 597.048 385.701 574.425 392.381C551.802 399.061 526.097 401.434 500.993 399.161L459.576 429.355L482.35 467.793Z" fill="url(#paint2_linear_5_156)"/>
</g>
<g opacity="0.3" filter="url(#filter3_f_5_156)">
<path d="M734.16 393.491C757.19 367.335 765.286 337.641 757.289 308.666C749.291 279.69 725.611 252.92 689.642 232.192L604.639 281.361C622.624 291.725 634.464 305.11 638.462 319.598C642.461 334.085 638.413 348.932 626.898 362.01L673.785 395.835L734.16 393.491Z" fill="url(#paint3_linear_5_156)"/>
</g>
<g opacity="0.3" filter="url(#filter4_f_5_156)">
<path d="M689.793 232.288C653.858 211.541 607.468 197.894 557.274 193.304C507.079 188.714 455.656 193.416 410.374 206.737L464.08 231.418L465.001 268.635C487.641 261.975 513.353 259.624 538.45 261.919C563.548 264.214 586.743 271.037 604.71 281.411L668.774 269.275L689.793 232.288Z" fill="url(#paint4_linear_5_156)"/>
</g>
<path d="M689.793 218.289C783.773 272.548 783.773 360.52 689.793 414.779C595.813 469.039 443.441 469.039 349.461 414.779C255.481 360.52 255.481 272.548 349.461 218.289C443.441 164.029 595.813 164.029 689.793 218.289ZM434.544 365.657C481.534 392.786 557.72 392.786 604.71 365.657C651.7 338.527 651.7 294.541 604.71 267.411C557.72 240.281 481.534 240.282 434.544 267.411C387.554 294.541 387.554 338.527 434.544 365.657Z" fill="url(#paint5_linear_5_156)"/>
<path d="M282.341 339.665C290.802 368.596 314.91 395.239 351.21 415.774C387.51 436.309 434.138 449.681 484.412 453.976L502.022 385.254C476.886 383.107 453.572 376.42 435.422 366.153C417.272 355.885 405.218 342.564 400.987 328.098L341.665 313.524L282.341 339.665Z" fill="url(#paint6_linear_5_156)"/>
<path d="M482.351 453.793C532.557 458.339 583.968 453.592 629.215 440.231C674.461 426.871 711.22 405.584 734.223 379.42L626.93 347.975C615.428 361.057 597.049 371.701 574.425 378.381C551.802 385.061 526.097 387.435 500.993 385.162L459.577 415.355L482.351 453.793Z" fill="url(#paint7_linear_5_156)"/>
<path d="M734.161 379.491C757.191 353.335 765.287 323.641 757.29 294.666C749.293 265.69 725.612 238.92 689.643 218.192L604.64 267.361C622.625 277.725 634.465 291.11 638.464 305.598C642.462 320.085 638.414 334.932 626.899 348.01L673.786 381.835L734.161 379.491Z" fill="url(#paint8_linear_5_156)"/>
<path d="M689.794 218.288C653.858 197.54 607.469 183.894 557.274 179.304C507.079 174.714 455.656 179.416 410.374 192.737L464.08 217.418L465.001 254.635C487.642 247.975 513.353 245.624 538.451 247.918C563.548 250.213 586.743 257.037 604.711 267.41L668.774 255.275L689.794 218.288Z" fill="url(#paint9_linear_5_156)"/>
<path d="M345.42 257.636C345.42 258.557 345.254 259.352 344.922 260.023C344.589 260.693 344.134 261.21 343.554 261.574C342.974 261.938 342.313 262.119 341.568 262.119C340.824 262.119 340.162 261.938 339.582 261.574C339.003 261.21 338.547 260.693 338.214 260.023C337.882 259.352 337.716 258.557 337.716 257.636C337.716 256.716 337.882 255.92 338.214 255.25C338.547 254.58 339.003 254.062 339.582 253.699C340.162 253.335 340.824 253.153 341.568 253.153C342.313 253.153 342.974 253.335 343.554 253.699C344.134 254.062 344.589 254.58 344.922 255.25C345.254 255.92 345.42 256.716 345.42 257.636ZM344.398 257.636C344.398 256.881 344.271 256.243 344.018 255.723C343.768 255.203 343.429 254.81 343 254.543C342.574 254.276 342.097 254.142 341.568 254.142C341.04 254.142 340.561 254.276 340.132 254.543C339.706 254.81 339.366 255.203 339.114 255.723C338.864 256.243 338.739 256.881 338.739 257.636C338.739 258.392 338.864 259.03 339.114 259.55C339.366 260.07 339.706 260.463 340.132 260.73C340.561 260.997 341.04 261.131 341.568 261.131C342.097 261.131 342.574 260.997 343 260.73C343.429 260.463 343.768 260.07 344.018 259.55C344.271 259.03 344.398 258.392 344.398 257.636ZM348.067 258.062L348.067 262H347.061L347.061 255.455H348.033L348.033 256.477H348.118C348.271 256.145 348.504 255.878 348.817 255.676C349.129 255.472 349.533 255.369 350.027 255.369C350.47 255.369 350.858 255.46 351.19 255.642C351.523 255.821 351.781 256.094 351.966 256.46C352.151 256.824 352.243 257.284 352.243 257.841L352.243 262H351.237L351.237 257.909C351.237 257.395 351.104 256.994 350.837 256.707C350.57 256.418 350.203 256.273 349.737 256.273C349.416 256.273 349.129 256.342 348.876 256.482C348.626 256.621 348.429 256.824 348.284 257.091C348.139 257.358 348.067 257.682 348.067 258.062ZM356.927 255.455L356.927 256.307H353.535L353.535 255.455H356.927ZM354.524 253.886H355.529L355.529 260.125C355.529 260.409 355.571 260.622 355.653 260.764C355.738 260.903 355.846 260.997 355.977 261.045C356.11 261.091 356.251 261.114 356.399 261.114C356.51 261.114 356.6 261.108 356.672 261.097C356.743 261.082 356.799 261.071 356.842 261.062L357.047 261.966C356.978 261.991 356.883 262.017 356.761 262.043C356.639 262.071 356.484 262.085 356.297 262.085C356.012 262.085 355.734 262.024 355.461 261.902C355.191 261.78 354.967 261.594 354.788 261.344C354.612 261.094 354.524 260.778 354.524 260.398L354.524 253.886ZM361.029 262.136C360.438 262.136 359.919 261.996 359.473 261.714C359.03 261.433 358.684 261.04 358.434 260.534C358.186 260.028 358.063 259.437 358.063 258.761C358.063 258.08 358.186 257.484 358.434 256.976C358.684 256.467 359.03 256.072 359.473 255.791C359.919 255.51 360.438 255.369 361.029 255.369C361.62 255.369 362.137 255.51 362.58 255.791C363.026 256.072 363.373 256.467 363.62 256.976C363.87 257.484 363.995 258.08 363.995 258.761C363.995 259.437 363.87 260.028 363.62 260.534C363.373 261.04 363.026 261.433 362.58 261.714C362.137 261.996 361.62 262.136 361.029 262.136ZM361.029 261.233C361.478 261.233 361.847 261.118 362.137 260.888C362.426 260.658 362.641 260.355 362.78 259.98C362.919 259.605 362.989 259.199 362.989 258.761C362.989 258.324 362.919 257.916 362.78 257.538C362.641 257.161 362.426 256.855 362.137 256.622C361.847 256.389 361.478 256.273 361.029 256.273C360.58 256.273 360.211 256.389 359.921 256.622C359.631 256.855 359.417 257.161 359.277 257.538C359.138 257.916 359.069 258.324 359.069 258.761C359.069 259.199 359.138 259.605 359.277 259.98C359.417 260.355 359.631 260.658 359.921 260.888C360.211 261.118 360.58 261.233 361.029 261.233ZM366.536 253.273L366.536 262H365.53L365.53 253.273H366.536ZM371.037 262.136C370.446 262.136 369.927 261.996 369.481 261.714C369.038 261.433 368.691 261.04 368.441 260.534C368.194 260.028 368.071 259.437 368.071 258.761C368.071 258.08 368.194 257.484 368.441 256.976C368.691 256.467 369.038 256.072 369.481 255.791C369.927 255.51 370.446 255.369 371.037 255.369C371.627 255.369 372.145 255.51 372.588 255.791C373.034 256.072 373.38 256.467 373.627 256.976C373.877 257.484 374.002 258.08 374.002 258.761C374.002 259.437 373.877 260.028 373.627 260.534C373.38 261.04 373.034 261.433 372.588 261.714C372.145 261.996 371.627 262.136 371.037 262.136ZM371.037 261.233C371.485 261.233 371.855 261.118 372.145 260.888C372.434 260.658 372.649 260.355 372.788 259.98C372.927 259.605 372.997 259.199 372.997 258.761C372.997 258.324 372.927 257.916 372.788 257.538C372.649 257.161 372.434 256.855 372.145 256.622C371.855 256.389 371.485 256.273 371.037 256.273C370.588 256.273 370.218 256.389 369.929 256.622C369.639 256.855 369.424 257.161 369.285 257.538C369.146 257.916 369.076 258.324 369.076 258.761C369.076 259.199 369.146 259.605 369.285 259.98C369.424 260.355 369.639 260.658 369.929 260.888C370.218 261.118 370.588 261.233 371.037 261.233ZM378.18 264.591C377.694 264.591 377.276 264.528 376.927 264.403C376.577 264.281 376.286 264.119 376.053 263.918C375.823 263.719 375.64 263.506 375.504 263.278L376.305 262.716C376.396 262.835 376.511 262.972 376.65 263.125C376.789 263.281 376.979 263.416 377.221 263.53C377.465 263.646 377.785 263.705 378.18 263.705C378.708 263.705 379.144 263.577 379.488 263.321C379.832 263.065 380.004 262.665 380.004 262.119L380.004 260.79H379.918C379.844 260.909 379.739 261.057 379.603 261.233C379.469 261.406 379.276 261.561 379.023 261.697C378.773 261.831 378.435 261.898 378.009 261.898C377.481 261.898 377.006 261.773 376.586 261.523C376.168 261.273 375.837 260.909 375.593 260.432C375.352 259.955 375.231 259.375 375.231 258.693C375.231 258.023 375.349 257.439 375.585 256.942C375.82 256.442 376.148 256.055 376.569 255.783C376.989 255.507 377.475 255.369 378.026 255.369C378.452 255.369 378.79 255.44 379.04 255.582C379.293 255.722 379.487 255.881 379.62 256.06C379.756 256.236 379.862 256.381 379.935 256.494H380.038L380.038 255.455H381.009L381.009 262.188C381.009 262.75 380.881 263.207 380.626 263.56C380.373 263.915 380.032 264.175 379.603 264.339C379.177 264.507 378.702 264.591 378.18 264.591ZM378.146 260.994C378.549 260.994 378.89 260.902 379.168 260.717C379.447 260.533 379.658 260.267 379.803 259.92C379.948 259.574 380.021 259.159 380.021 258.676C380.021 258.205 379.95 257.788 379.808 257.428C379.665 257.067 379.455 256.784 379.177 256.58C378.898 256.375 378.555 256.273 378.146 256.273C377.719 256.273 377.364 256.381 377.08 256.597C376.799 256.812 376.587 257.102 376.445 257.466C376.306 257.83 376.237 258.233 376.237 258.676C376.237 259.131 376.308 259.533 376.45 259.882C376.594 260.229 376.808 260.501 377.089 260.7C377.373 260.896 377.725 260.994 378.146 260.994ZM383.498 264.455C383.327 264.455 383.175 264.44 383.042 264.412C382.908 264.386 382.816 264.361 382.765 264.335L383.021 263.449C383.265 263.511 383.481 263.534 383.668 263.517C383.856 263.5 384.022 263.416 384.167 263.266C384.315 263.118 384.45 262.878 384.572 262.545L384.759 262.034L382.339 255.455H383.43L385.237 260.67H385.305L387.112 255.455H388.202L385.424 262.955C385.299 263.293 385.144 263.572 384.96 263.794C384.775 264.018 384.56 264.185 384.316 264.293C384.075 264.401 383.802 264.455 383.498 264.455Z" fill="white"/>
<path d="M377.42 380.636C377.42 381.557 377.254 382.352 376.922 383.023C376.589 383.693 376.134 384.21 375.554 384.574C374.974 384.937 374.313 385.119 373.568 385.119C372.824 385.119 372.162 384.937 371.582 384.574C371.003 384.21 370.547 383.693 370.214 383.023C369.882 382.352 369.716 381.557 369.716 380.636C369.716 379.716 369.882 378.92 370.214 378.25C370.547 377.58 371.003 377.062 371.582 376.699C372.162 376.335 372.824 376.153 373.568 376.153C374.313 376.153 374.974 376.335 375.554 376.699C376.134 377.062 376.589 377.58 376.922 378.25C377.254 378.92 377.42 379.716 377.42 380.636ZM376.398 380.636C376.398 379.881 376.271 379.243 376.018 378.723C375.768 378.203 375.429 377.81 375 377.543C374.574 377.276 374.097 377.142 373.568 377.142C373.04 377.142 372.561 377.276 372.132 377.543C371.706 377.81 371.366 378.203 371.114 378.723C370.864 379.243 370.739 379.881 370.739 380.636C370.739 381.392 370.864 382.03 371.114 382.55C371.366 383.07 371.706 383.463 372.132 383.73C372.561 383.997 373.04 384.131 373.568 384.131C374.097 384.131 374.574 383.997 375 383.73C375.429 383.463 375.768 383.07 376.018 382.55C376.271 382.03 376.398 381.392 376.398 380.636ZM379.197 385L379.197 376.273H380.254L380.254 380.602H380.357L384.277 376.273H385.658L381.993 380.21L385.658 385H384.379L381.345 380.943L380.254 382.17L380.254 385H379.197ZM387.026 385L387.026 376.273H389.974C390.656 376.273 391.216 376.389 391.653 376.622C392.091 376.852 392.415 377.169 392.625 377.572C392.835 377.976 392.94 378.435 392.94 378.949C392.94 379.463 392.835 379.919 392.625 380.317C392.415 380.714 392.092 381.027 391.658 381.254C391.223 381.479 390.668 381.591 389.991 381.591H387.605L387.605 380.636H389.957C390.423 380.636 390.798 380.568 391.082 380.432C391.369 380.295 391.577 380.102 391.705 379.852C391.835 379.599 391.901 379.298 391.901 378.949C391.901 378.599 391.835 378.294 391.705 378.033C391.574 377.771 391.365 377.57 391.078 377.428C390.791 377.283 390.412 377.21 389.94 377.21H388.082L388.082 385H387.026ZM391.134 381.08L393.281 385H392.054L389.94 381.08H391.134ZM399.201 379.92L398.298 380.176C398.241 380.026 398.157 379.879 398.047 379.737C397.939 379.592 397.791 379.473 397.603 379.379C397.416 379.285 397.176 379.239 396.883 379.239C396.483 379.239 396.149 379.331 395.882 379.516C395.618 379.697 395.485 379.929 395.485 380.21C395.485 380.46 395.576 380.658 395.758 380.803C395.94 380.947 396.224 381.068 396.61 381.165L397.582 381.403C398.167 381.545 398.603 381.763 398.89 382.055C399.177 382.345 399.321 382.719 399.321 383.176C399.321 383.551 399.213 383.886 398.997 384.182C398.784 384.477 398.485 384.71 398.102 384.881C397.718 385.051 397.272 385.136 396.764 385.136C396.096 385.136 395.544 384.991 395.106 384.702C394.669 384.412 394.392 383.989 394.275 383.432L395.23 383.193C395.321 383.545 395.493 383.81 395.745 383.986C396.001 384.162 396.335 384.25 396.747 384.25C397.216 384.25 397.588 384.151 397.863 383.952C398.142 383.75 398.281 383.508 398.281 383.227C398.281 383 398.201 382.81 398.042 382.656C397.883 382.5 397.639 382.383 397.309 382.307L396.218 382.051C395.619 381.909 395.179 381.689 394.897 381.391C394.619 381.089 394.48 380.713 394.48 380.261C394.48 379.892 394.583 379.565 394.791 379.281C395.001 378.997 395.287 378.774 395.647 378.612C396.011 378.45 396.423 378.369 396.883 378.369C397.531 378.369 398.039 378.511 398.409 378.795C398.781 379.08 399.045 379.455 399.201 379.92Z" fill="white"/>
<path d="M542.489 399.273H543.546L543.546 405.051C543.546 405.648 543.405 406.18 543.124 406.649C542.846 407.115 542.452 407.483 541.944 407.753C541.435 408.02 540.839 408.153 540.154 408.153C539.469 408.153 538.873 408.02 538.364 407.753C537.856 407.483 537.461 407.115 537.18 406.649C536.901 406.18 536.762 405.648 536.762 405.051L536.762 399.273H537.819L537.819 404.966C537.819 405.392 537.912 405.771 538.1 406.104C538.287 406.433 538.555 406.693 538.901 406.883C539.251 407.071 539.668 407.165 540.154 407.165C540.64 407.165 541.057 407.071 541.407 406.883C541.756 406.693 542.023 406.433 542.208 406.104C542.395 405.771 542.489 405.392 542.489 404.966L542.489 399.273ZM550.156 402.92L549.253 403.176C549.196 403.026 549.112 402.879 549.002 402.737C548.894 402.592 548.746 402.473 548.558 402.379C548.371 402.285 548.131 402.239 547.838 402.239C547.438 402.239 547.104 402.331 546.837 402.516C546.573 402.697 546.441 402.929 546.441 403.21C546.441 403.46 546.531 403.658 546.713 403.803C546.895 403.947 547.179 404.068 547.566 404.165L548.537 404.403C549.122 404.545 549.558 404.763 549.845 405.055C550.132 405.345 550.276 405.719 550.276 406.176C550.276 406.551 550.168 406.886 549.952 407.182C549.739 407.477 549.441 407.71 549.057 407.881C548.673 408.051 548.227 408.136 547.719 408.136C547.051 408.136 546.499 407.991 546.061 407.702C545.624 407.412 545.347 406.989 545.23 406.432L546.185 406.193C546.276 406.545 546.448 406.81 546.7 406.986C546.956 407.162 547.29 407.25 547.702 407.25C548.171 407.25 548.543 407.151 548.818 406.952C549.097 406.75 549.236 406.508 549.236 406.227C549.236 406 549.156 405.81 548.997 405.656C548.838 405.5 548.594 405.383 548.264 405.307L547.173 405.051C546.574 404.909 546.134 404.689 545.852 404.391C545.574 404.089 545.435 403.713 545.435 403.261C545.435 402.892 545.539 402.565 545.746 402.281C545.956 401.997 546.242 401.774 546.602 401.612C546.966 401.45 547.378 401.369 547.838 401.369C548.486 401.369 548.994 401.511 549.364 401.795C549.736 402.08 550 402.455 550.156 402.92ZM554.534 408.136C553.903 408.136 553.359 407.997 552.902 407.719C552.447 407.437 552.096 407.045 551.849 406.543C551.605 406.037 551.483 405.449 551.483 404.778C551.483 404.108 551.605 403.517 551.849 403.006C552.096 402.491 552.44 402.091 552.881 401.804C553.324 401.514 553.841 401.369 554.432 401.369C554.773 401.369 555.109 401.426 555.442 401.54C555.774 401.653 556.077 401.838 556.349 402.094C556.622 402.347 556.839 402.682 557.001 403.099C557.163 403.517 557.244 404.031 557.244 404.642L557.244 405.068H552.199L552.199 404.199H556.221C556.221 403.83 556.148 403.5 556 403.21C555.855 402.92 555.648 402.692 555.378 402.524C555.111 402.356 554.795 402.273 554.432 402.273C554.031 402.273 553.684 402.372 553.392 402.571C553.102 402.767 552.879 403.023 552.723 403.338C552.567 403.653 552.488 403.991 552.488 404.352L552.488 404.932C552.488 405.426 552.574 405.845 552.744 406.189C552.917 406.53 553.157 406.79 553.464 406.969C553.771 407.145 554.128 407.233 554.534 407.233C554.798 407.233 555.037 407.196 555.25 407.122C555.466 407.045 555.652 406.932 555.808 406.781C555.964 406.628 556.085 406.437 556.17 406.21L557.142 406.483C557.04 406.812 556.868 407.102 556.626 407.352C556.385 407.599 556.086 407.793 555.731 407.932C555.376 408.068 554.977 408.136 554.534 408.136ZM558.774 408L558.774 401.455H559.746L559.746 402.443H559.814C559.933 402.119 560.149 401.856 560.461 401.655C560.774 401.453 561.126 401.352 561.518 401.352C561.592 401.352 561.684 401.354 561.795 401.356C561.906 401.359 561.99 401.364 562.047 401.369L562.047 402.392C562.013 402.383 561.934 402.371 561.812 402.354C561.693 402.334 561.567 402.324 561.433 402.324C561.115 402.324 560.831 402.391 560.581 402.524C560.334 402.655 560.138 402.837 559.993 403.07C559.851 403.3 559.78 403.562 559.78 403.858L559.78 408H558.774ZM566.614 408L566.614 401.455H567.619L567.619 408H566.614ZM567.125 400.364C566.929 400.364 566.76 400.297 566.618 400.163C566.479 400.03 566.409 399.869 566.409 399.682C566.409 399.494 566.479 399.334 566.618 399.2C566.76 399.067 566.929 399 567.125 399C567.321 399 567.489 399.067 567.628 399.2C567.77 399.334 567.841 399.494 567.841 399.682C567.841 399.869 567.77 400.03 567.628 400.163C567.489 400.297 567.321 400.364 567.125 400.364ZM570.467 404.062L570.467 408H569.461L569.461 401.455H570.433L570.433 402.477H570.518C570.672 402.145 570.905 401.878 571.217 401.676C571.53 401.472 571.933 401.369 572.427 401.369C572.871 401.369 573.258 401.46 573.591 401.642C573.923 401.821 574.182 402.094 574.366 402.46C574.551 402.824 574.643 403.284 574.643 403.841L574.643 408H573.638L573.638 403.909C573.638 403.395 573.504 402.994 573.237 402.707C572.97 402.418 572.604 402.273 572.138 402.273C571.817 402.273 571.53 402.342 571.277 402.481C571.027 402.621 570.829 402.824 570.684 403.091C570.54 403.358 570.467 403.682 570.467 404.062ZM579.328 401.455L579.328 402.307H575.936L575.936 401.455H579.328ZM576.924 399.886H577.93L577.93 406.125C577.93 406.409 577.971 406.622 578.053 406.764C578.139 406.903 578.247 406.997 578.377 407.045C578.511 407.091 578.651 407.114 578.799 407.114C578.91 407.114 579.001 407.108 579.072 407.097C579.143 407.082 579.2 407.071 579.242 407.062L579.447 407.966C579.379 407.991 579.284 408.017 579.161 408.043C579.039 408.071 578.884 408.085 578.697 408.085C578.413 408.085 578.134 408.024 577.862 407.902C577.592 407.78 577.367 407.594 577.188 407.344C577.012 407.094 576.924 406.778 576.924 406.398L576.924 399.886ZM583.514 408.136C582.884 408.136 582.34 407.997 581.882 407.719C581.428 407.437 581.077 407.045 580.83 406.543C580.585 406.037 580.463 405.449 580.463 404.778C580.463 404.108 580.585 403.517 580.83 403.006C581.077 402.491 581.421 402.091 581.861 401.804C582.304 401.514 582.821 401.369 583.412 401.369C583.753 401.369 584.09 401.426 584.422 401.54C584.754 401.653 585.057 401.838 585.33 402.094C585.602 402.347 585.82 402.682 585.982 403.099C586.144 403.517 586.225 404.031 586.225 404.642L586.225 405.068H581.179L581.179 404.199H585.202C585.202 403.83 585.128 403.5 584.98 403.21C584.835 402.92 584.628 402.692 584.358 402.524C584.091 402.356 583.776 402.273 583.412 402.273C583.012 402.273 582.665 402.372 582.372 402.571C582.083 402.767 581.86 403.023 581.703 403.338C581.547 403.653 581.469 403.991 581.469 404.352L581.469 404.932C581.469 405.426 581.554 405.845 581.725 406.189C581.898 406.53 582.138 406.79 582.445 406.969C582.752 407.145 583.108 407.233 583.514 407.233C583.779 407.233 584.017 407.196 584.23 407.122C584.446 407.045 584.632 406.932 584.789 406.781C584.945 406.628 585.066 406.437 585.151 406.21L586.122 406.483C586.02 406.812 585.848 407.102 585.607 407.352C585.365 407.599 585.067 407.793 584.712 407.932C584.357 408.068 583.958 408.136 583.514 408.136ZM587.754 408L587.754 401.455H588.726L588.726 402.443H588.794C588.914 402.119 589.129 401.856 589.442 401.655C589.754 401.453 590.107 401.352 590.499 401.352C590.573 401.352 590.665 401.354 590.776 401.356C590.887 401.359 590.97 401.364 591.027 401.369L591.027 402.392C590.993 402.383 590.915 402.371 590.793 402.354C590.673 402.334 590.547 402.324 590.414 402.324C590.095 402.324 589.811 402.391 589.561 402.524C589.314 402.655 589.118 402.837 588.973 403.07C588.831 403.3 588.76 403.562 588.76 403.858L588.76 408H587.754ZM595.544 401.455L595.544 402.307H592.016L592.016 401.455H595.544ZM593.073 408L593.073 400.551C593.073 400.176 593.161 399.864 593.337 399.614C593.513 399.364 593.742 399.176 594.023 399.051C594.304 398.926 594.601 398.864 594.914 398.864C595.161 398.864 595.362 398.883 595.519 398.923C595.675 398.963 595.791 399 595.868 399.034L595.578 399.903C595.527 399.886 595.456 399.865 595.365 399.839C595.277 399.814 595.161 399.801 595.016 399.801C594.683 399.801 594.443 399.885 594.296 400.053C594.151 400.22 594.078 400.466 594.078 400.79L594.078 408H593.073ZM598.692 408.153C598.278 408.153 597.901 408.075 597.563 407.919C597.225 407.76 596.956 407.531 596.758 407.233C596.559 406.932 596.459 406.568 596.459 406.142C596.459 405.767 596.533 405.463 596.681 405.23C596.829 404.994 597.026 404.81 597.273 404.676C597.52 404.543 597.793 404.443 598.091 404.378C598.393 404.31 598.695 404.256 598.999 404.216C599.397 404.165 599.719 404.126 599.966 404.101C600.216 404.072 600.398 404.026 600.512 403.96C600.628 403.895 600.687 403.781 600.687 403.619L600.687 403.585C600.687 403.165 600.572 402.838 600.341 402.605C600.114 402.372 599.769 402.256 599.306 402.256C598.826 402.256 598.449 402.361 598.177 402.571C597.904 402.781 597.712 403.006 597.601 403.244L596.647 402.903C596.817 402.506 597.045 402.196 597.329 401.974C597.616 401.75 597.928 401.594 598.266 401.506C598.607 401.415 598.942 401.369 599.272 401.369C599.482 401.369 599.724 401.395 599.996 401.446C600.272 401.494 600.537 401.595 600.793 401.749C601.052 401.902 601.266 402.133 601.437 402.443C601.607 402.753 601.692 403.168 601.692 403.687L601.692 408H600.687L600.687 407.114H600.635C600.567 407.256 600.454 407.408 600.295 407.57C600.135 407.731 599.924 407.869 599.66 407.983C599.395 408.097 599.073 408.153 598.692 408.153ZM598.846 407.25C599.243 407.25 599.579 407.172 599.851 407.016C600.127 406.859 600.334 406.658 600.474 406.41C600.616 406.163 600.687 405.903 600.687 405.631L600.687 404.71C600.644 404.761 600.55 404.808 600.405 404.851C600.263 404.891 600.099 404.926 599.911 404.957C599.726 404.986 599.546 405.011 599.37 405.034C599.197 405.054 599.056 405.071 598.948 405.085C598.687 405.119 598.442 405.175 598.215 405.251C597.991 405.325 597.809 405.437 597.67 405.588C597.533 405.736 597.465 405.937 597.465 406.193C597.465 406.543 597.594 406.807 597.853 406.986C598.114 407.162 598.445 407.25 598.846 407.25ZM606.187 408.136C605.573 408.136 605.045 407.991 604.602 407.702C604.159 407.412 603.818 407.013 603.579 406.504C603.34 405.996 603.221 405.415 603.221 404.761C603.221 404.097 603.343 403.51 603.588 403.001C603.835 402.49 604.178 402.091 604.619 401.804C605.062 401.514 605.579 401.369 606.17 401.369C606.63 401.369 607.045 401.455 607.414 401.625C607.784 401.795 608.086 402.034 608.322 402.341C608.558 402.648 608.704 403.006 608.761 403.415H607.755C607.678 403.116 607.508 402.852 607.244 402.622C606.982 402.389 606.63 402.273 606.187 402.273C605.795 402.273 605.451 402.375 605.156 402.58C604.863 402.781 604.634 403.067 604.47 403.436C604.308 403.803 604.227 404.233 604.227 404.727C604.227 405.233 604.306 405.673 604.465 406.048C604.627 406.423 604.855 406.714 605.147 406.922C605.443 407.129 605.789 407.233 606.187 407.233C606.448 407.233 606.686 407.187 606.899 407.097C607.112 407.006 607.292 406.875 607.44 406.705C607.588 406.534 607.693 406.33 607.755 406.091H608.761C608.704 406.477 608.563 406.825 608.339 407.135C608.117 407.442 607.823 407.686 607.457 407.868C607.093 408.047 606.67 408.136 606.187 408.136ZM612.975 408.136C612.345 408.136 611.801 407.997 611.343 407.719C610.889 407.437 610.538 407.045 610.291 406.543C610.046 406.037 609.924 405.449 609.924 404.778C609.924 404.108 610.046 403.517 610.291 403.006C610.538 402.491 610.882 402.091 611.322 401.804C611.765 401.514 612.282 401.369 612.873 401.369C613.214 401.369 613.551 401.426 613.883 401.54C614.215 401.653 614.518 401.838 614.791 402.094C615.063 402.347 615.281 402.682 615.443 403.099C615.605 403.517 615.686 404.031 615.686 404.642L615.686 405.068H610.64L610.64 404.199H614.663C614.663 403.83 614.589 403.5 614.441 403.21C614.296 402.92 614.089 402.692 613.819 402.524C613.552 402.356 613.237 402.273 612.873 402.273C612.472 402.273 612.126 402.372 611.833 402.571C611.544 402.767 611.32 403.023 611.164 403.338C611.008 403.653 610.93 403.991 610.93 404.352L610.93 404.932C610.93 405.426 611.015 405.845 611.186 406.189C611.359 406.53 611.599 406.79 611.906 406.969C612.213 407.145 612.569 407.233 612.975 407.233C613.24 407.233 613.478 407.196 613.691 407.122C613.907 407.045 614.093 406.932 614.249 406.781C614.406 406.628 614.526 406.437 614.612 406.21L615.583 406.483C615.481 406.812 615.309 407.102 615.068 407.352C614.826 407.599 614.528 407.793 614.173 407.932C613.818 408.068 613.419 408.136 612.975 408.136Z" fill="white"/>
<path d="M530.08 213H529.023C528.96 212.696 528.851 212.429 528.695 212.199C528.541 211.969 528.354 211.776 528.132 211.619C527.913 211.46 527.67 211.341 527.403 211.261C527.136 211.182 526.858 211.142 526.568 211.142C526.04 211.142 525.561 211.276 525.132 211.543C524.706 211.81 524.366 212.203 524.114 212.723C523.864 213.243 523.739 213.881 523.739 214.636C523.739 215.392 523.864 216.03 524.114 216.55C524.366 217.07 524.706 217.463 525.132 217.73C525.561 217.997 526.04 218.131 526.568 218.131C526.858 218.131 527.136 218.091 527.403 218.011C527.67 217.932 527.913 217.814 528.132 217.658C528.354 217.499 528.541 217.304 528.695 217.074C528.851 216.841 528.96 216.574 529.023 216.273H530.08C530 216.719 529.855 217.118 529.645 217.47C529.435 217.822 529.173 218.122 528.861 218.369C528.548 218.614 528.197 218.8 527.808 218.928C527.422 219.055 527.009 219.119 526.568 219.119C525.824 219.119 525.162 218.938 524.582 218.574C524.003 218.21 523.547 217.693 523.214 217.023C522.882 216.352 522.716 215.557 522.716 214.636C522.716 213.716 522.882 212.92 523.214 212.25C523.547 211.58 524.003 211.062 524.582 210.699C525.162 210.335 525.824 210.153 526.568 210.153C527.009 210.153 527.422 210.217 527.808 210.345C528.197 210.473 528.548 210.661 528.861 210.908C529.173 211.152 529.435 211.45 529.645 211.803C529.855 212.152 530 212.551 530.08 213ZM534.31 219.136C533.719 219.136 533.201 218.996 532.755 218.714C532.311 218.433 531.965 218.04 531.715 217.534C531.468 217.028 531.344 216.437 531.344 215.761C531.344 215.08 531.468 214.484 531.715 213.976C531.965 213.467 532.311 213.072 532.755 212.791C533.201 212.51 533.719 212.369 534.31 212.369C534.901 212.369 535.418 212.51 535.861 212.791C536.307 213.072 536.654 213.467 536.901 213.976C537.151 214.484 537.276 215.08 537.276 215.761C537.276 216.437 537.151 217.028 536.901 217.534C536.654 218.04 536.307 218.433 535.861 218.714C535.418 218.996 534.901 219.136 534.31 219.136ZM534.31 218.233C534.759 218.233 535.128 218.118 535.418 217.888C535.708 217.658 535.922 217.355 536.061 216.98C536.201 216.605 536.27 216.199 536.27 215.761C536.27 215.324 536.201 214.916 536.061 214.538C535.922 214.161 535.708 213.855 535.418 213.622C535.128 213.389 534.759 213.273 534.31 213.273C533.861 213.273 533.492 213.389 533.202 213.622C532.912 213.855 532.698 214.161 532.559 214.538C532.419 214.916 532.35 215.324 532.35 215.761C532.35 216.199 532.419 216.605 532.559 216.98C532.698 217.355 532.912 217.658 533.202 217.888C533.492 218.118 533.861 218.233 534.31 218.233ZM538.811 219L538.811 212.455H539.783L539.783 213.477H539.868C540.004 213.128 540.224 212.857 540.528 212.663C540.832 212.467 541.197 212.369 541.624 212.369C542.055 212.369 542.415 212.467 542.702 212.663C542.991 212.857 543.217 213.128 543.379 213.477H543.447C543.615 213.139 543.866 212.871 544.202 212.672C544.537 212.47 544.939 212.369 545.408 212.369C545.993 212.369 546.472 212.553 546.844 212.919C547.216 213.283 547.402 213.849 547.402 214.619L547.402 219H546.396L546.396 214.619C546.396 214.136 546.264 213.791 546 213.584C545.736 213.376 545.425 213.273 545.067 213.273C544.607 213.273 544.25 213.412 543.997 213.69C543.744 213.966 543.618 214.315 543.618 214.739L543.618 219H542.595L542.595 214.517C542.595 214.145 542.474 213.845 542.233 213.618C541.991 213.388 541.68 213.273 541.3 213.273C541.038 213.273 540.794 213.342 540.567 213.482C540.342 213.621 540.161 213.814 540.021 214.061C539.885 214.305 539.817 214.588 539.817 214.909L539.817 219H538.811ZM549.241 221.455L549.241 212.455H550.212L550.212 213.494H550.332C550.406 213.381 550.508 213.236 550.638 213.06C550.772 212.881 550.962 212.722 551.21 212.582C551.46 212.44 551.798 212.369 552.224 212.369C552.775 212.369 553.261 212.507 553.681 212.783C554.102 213.058 554.43 213.449 554.665 213.955C554.901 214.46 555.019 215.057 555.019 215.744C555.019 216.438 554.901 217.038 554.665 217.547C554.43 218.053 554.103 218.445 553.685 218.723C553.268 218.999 552.786 219.136 552.241 219.136C551.82 219.136 551.484 219.067 551.231 218.928C550.978 218.786 550.783 218.625 550.647 218.446C550.511 218.264 550.406 218.114 550.332 217.994H550.246L550.246 221.455H549.241ZM550.229 215.727C550.229 216.222 550.302 216.658 550.447 217.036C550.592 217.411 550.803 217.705 551.082 217.918C551.36 218.128 551.701 218.233 552.104 218.233C552.525 218.233 552.876 218.122 553.157 217.901C553.441 217.676 553.654 217.375 553.796 216.997C553.941 216.616 554.013 216.193 554.013 215.727C554.013 215.267 553.942 214.852 553.8 214.483C553.661 214.111 553.45 213.817 553.165 213.601C552.884 213.382 552.531 213.273 552.104 213.273C551.695 213.273 551.352 213.376 551.073 213.584C550.795 213.788 550.585 214.075 550.442 214.445C550.3 214.811 550.229 215.239 550.229 215.727ZM559.212 219.136C558.621 219.136 558.103 218.996 557.657 218.714C557.214 218.433 556.867 218.04 556.617 217.534C556.37 217.028 556.246 216.437 556.246 215.761C556.246 215.08 556.37 214.484 556.617 213.976C556.867 213.467 557.214 213.072 557.657 212.791C558.103 212.51 558.621 212.369 559.212 212.369C559.803 212.369 560.32 212.51 560.763 212.791C561.21 213.072 561.556 213.467 561.803 213.976C562.053 214.484 562.178 215.08 562.178 215.761C562.178 216.437 562.053 217.028 561.803 217.534C561.556 218.04 561.21 218.433 560.763 218.714C560.32 218.996 559.803 219.136 559.212 219.136ZM559.212 218.233C559.661 218.233 560.031 218.118 560.32 217.888C560.61 217.658 560.825 217.355 560.964 216.98C561.103 216.605 561.173 216.199 561.173 215.761C561.173 215.324 561.103 214.916 560.964 214.538C560.825 214.161 560.61 213.855 560.32 213.622C560.031 213.389 559.661 213.273 559.212 213.273C558.763 213.273 558.394 213.389 558.104 213.622C557.815 213.855 557.6 214.161 557.461 214.538C557.322 214.916 557.252 215.324 557.252 215.761C557.252 216.199 557.322 216.605 557.461 216.98C557.6 217.355 557.815 217.658 558.104 217.888C558.394 218.118 558.763 218.233 559.212 218.233ZM564.719 215.062L564.719 219H563.713L563.713 212.455H564.685L564.685 213.477H564.77C564.924 213.145 565.157 212.878 565.469 212.676C565.782 212.472 566.185 212.369 566.679 212.369C567.123 212.369 567.51 212.46 567.843 212.642C568.175 212.821 568.434 213.094 568.618 213.46C568.803 213.824 568.895 214.284 568.895 214.841L568.895 219H567.89L567.89 214.909C567.89 214.395 567.756 213.994 567.489 213.707C567.222 213.418 566.855 213.273 566.39 213.273C566.069 213.273 565.782 213.342 565.529 213.482C565.279 213.621 565.081 213.824 564.936 214.091C564.792 214.358 564.719 214.682 564.719 215.062ZM573.477 219.136C572.847 219.136 572.303 218.997 571.845 218.719C571.391 218.438 571.04 218.045 570.793 217.543C570.548 217.037 570.426 216.449 570.426 215.778C570.426 215.108 570.548 214.517 570.793 214.006C571.04 213.491 571.384 213.091 571.824 212.804C572.267 212.514 572.784 212.369 573.375 212.369C573.716 212.369 574.053 212.426 574.385 212.54C574.717 212.653 575.02 212.838 575.293 213.094C575.565 213.347 575.783 213.682 575.945 214.099C576.107 214.517 576.187 215.031 576.187 215.642L576.187 216.068H571.142L571.142 215.199H575.165C575.165 214.83 575.091 214.5 574.943 214.21C574.798 213.92 574.591 213.692 574.321 213.524C574.054 213.357 573.739 213.273 573.375 213.273C572.974 213.273 572.628 213.372 572.335 213.571C572.045 213.767 571.822 214.023 571.666 214.338C571.51 214.653 571.432 214.991 571.432 215.352L571.432 215.932C571.432 216.426 571.517 216.845 571.687 217.189C571.861 217.53 572.101 217.79 572.408 217.969C572.714 218.145 573.071 218.233 573.477 218.233C573.741 218.233 573.98 218.196 574.193 218.122C574.409 218.045 574.595 217.932 574.751 217.781C574.908 217.628 575.028 217.437 575.114 217.21L576.085 217.483C575.983 217.812 575.811 218.102 575.57 218.352C575.328 218.599 575.03 218.793 574.675 218.932C574.32 219.068 573.92 219.136 573.477 219.136ZM578.723 215.062L578.723 219H577.717L577.717 212.455H578.689L578.689 213.477H578.774C578.928 213.145 579.161 212.878 579.473 212.676C579.786 212.472 580.189 212.369 580.683 212.369C581.126 212.369 581.514 212.46 581.847 212.642C582.179 212.821 582.438 213.094 582.622 213.46C582.807 213.824 582.899 214.284 582.899 214.841L582.899 219H581.893L581.893 214.909C581.893 214.395 581.76 213.994 581.493 213.707C581.226 213.418 580.859 213.273 580.393 213.273C580.072 213.273 579.786 213.342 579.533 213.482C579.283 213.621 579.085 213.824 578.94 214.091C578.795 214.358 578.723 214.682 578.723 215.062ZM587.583 212.455L587.583 213.307H584.191L584.191 212.455H587.583ZM585.18 210.886H586.186L586.186 217.125C586.186 217.409 586.227 217.622 586.309 217.764C586.395 217.903 586.502 217.997 586.633 218.045C586.767 218.091 586.907 218.114 587.055 218.114C587.166 218.114 587.257 218.108 587.328 218.097C587.399 218.082 587.456 218.071 587.498 218.062L587.703 218.966C587.635 218.991 587.539 219.017 587.417 219.043C587.295 219.071 587.14 219.085 586.953 219.085C586.669 219.085 586.39 219.024 586.118 218.902C585.848 218.78 585.623 218.594 585.444 218.344C585.268 218.094 585.18 217.778 585.18 217.398L585.18 210.886ZM593.615 213.92L592.712 214.176C592.655 214.026 592.571 213.879 592.461 213.737C592.353 213.592 592.205 213.473 592.017 213.379C591.83 213.286 591.59 213.239 591.297 213.239C590.897 213.239 590.563 213.331 590.296 213.516C590.032 213.697 589.9 213.929 589.9 214.21C589.9 214.46 589.99 214.658 590.172 214.803C590.354 214.947 590.638 215.068 591.025 215.165L591.996 215.403C592.581 215.545 593.017 215.763 593.304 216.055C593.591 216.345 593.735 216.719 593.735 217.176C593.735 217.551 593.627 217.886 593.411 218.182C593.198 218.477 592.9 218.71 592.516 218.881C592.132 219.051 591.686 219.136 591.178 219.136C590.51 219.136 589.958 218.991 589.52 218.702C589.083 218.412 588.806 217.989 588.689 217.432L589.644 217.193C589.735 217.545 589.907 217.81 590.159 217.986C590.415 218.162 590.749 218.25 591.161 218.25C591.63 218.25 592.002 218.151 592.277 217.952C592.556 217.75 592.695 217.509 592.695 217.227C592.695 217 592.615 216.81 592.456 216.656C592.297 216.5 592.053 216.384 591.723 216.307L590.632 216.051C590.033 215.909 589.593 215.689 589.311 215.391C589.033 215.089 588.894 214.713 588.894 214.261C588.894 213.892 588.998 213.565 589.205 213.281C589.415 212.997 589.701 212.774 590.061 212.612C590.425 212.45 590.837 212.369 591.297 212.369C591.945 212.369 592.453 212.511 592.823 212.795C593.195 213.08 593.459 213.455 593.615 213.92Z" fill="white"/>
<path d="M669.057 317L669.057 308.273H674.29L674.29 309.21H670.113L670.113 312.159H673.897L673.897 313.097H670.113L670.113 317H669.057ZM679.678 314.324L679.678 310.455H680.684L680.684 317H679.678L679.678 315.892H679.61C679.456 316.224 679.218 316.507 678.894 316.74C678.57 316.97 678.161 317.085 677.667 317.085C677.258 317.085 676.894 316.996 676.576 316.817C676.258 316.635 676.008 316.362 675.826 315.999C675.644 315.632 675.553 315.17 675.553 314.614L675.553 310.455H676.559L676.559 314.545C676.559 315.023 676.692 315.403 676.959 315.687C677.229 315.972 677.573 316.114 677.991 316.114C678.241 316.114 678.495 316.05 678.753 315.922C679.015 315.794 679.233 315.598 679.41 315.334C679.589 315.07 679.678 314.733 679.678 314.324ZM683.531 313.062L683.531 317H682.526L682.526 310.455H683.497L683.497 311.477H683.582C683.736 311.145 683.969 310.878 684.281 310.676C684.594 310.472 684.997 310.369 685.492 310.369C685.935 310.369 686.323 310.46 686.655 310.642C686.987 310.821 687.246 311.094 687.431 311.46C687.615 311.824 687.707 312.284 687.707 312.841L687.707 317H686.702L686.702 312.909C686.702 312.395 686.568 311.994 686.301 311.707C686.034 311.418 685.668 311.273 685.202 311.273C684.881 311.273 684.594 311.342 684.341 311.482C684.091 311.621 683.894 311.824 683.749 312.091C683.604 312.358 683.531 312.682 683.531 313.062ZM692.204 317.136C691.591 317.136 691.062 316.991 690.619 316.702C690.176 316.412 689.835 316.013 689.596 315.504C689.358 314.996 689.238 314.415 689.238 313.761C689.238 313.097 689.361 312.51 689.605 312.001C689.852 311.49 690.196 311.091 690.636 310.804C691.079 310.514 691.596 310.369 692.187 310.369C692.647 310.369 693.062 310.455 693.432 310.625C693.801 310.795 694.103 311.034 694.339 311.341C694.575 311.648 694.721 312.006 694.778 312.415H693.772C693.696 312.116 693.525 311.852 693.261 311.622C693 311.389 692.647 311.273 692.204 311.273C691.812 311.273 691.469 311.375 691.173 311.58C690.88 311.781 690.652 312.067 690.487 312.436C690.325 312.803 690.244 313.233 690.244 313.727C690.244 314.233 690.324 314.673 690.483 315.048C690.645 315.423 690.872 315.714 691.165 315.922C691.46 316.129 691.807 316.233 692.204 316.233C692.466 316.233 692.703 316.187 692.916 316.097C693.129 316.006 693.309 315.875 693.457 315.705C693.605 315.534 693.71 315.33 693.772 315.091H694.778C694.721 315.477 694.581 315.825 694.356 316.135C694.135 316.442 693.841 316.686 693.474 316.868C693.111 317.047 692.687 317.136 692.204 317.136ZM699.095 310.455L699.095 311.307H695.703L695.703 310.455H699.095ZM696.692 308.886H697.697L697.697 315.125C697.697 315.409 697.738 315.622 697.821 315.764C697.906 315.903 698.014 315.997 698.145 316.045C698.278 316.091 698.419 316.114 698.567 316.114C698.677 316.114 698.768 316.108 698.839 316.097C698.91 316.082 698.967 316.071 699.01 316.062L699.214 316.966C699.146 316.991 699.051 317.017 698.929 317.043C698.807 317.071 698.652 317.085 698.464 317.085C698.18 317.085 697.902 317.024 697.629 316.902C697.359 316.78 697.135 316.594 696.956 316.344C696.78 316.094 696.692 315.778 696.692 315.398L696.692 308.886ZM700.608 317L700.608 310.455H701.613L701.613 317H700.608ZM701.119 309.364C700.923 309.364 700.754 309.297 700.612 309.163C700.473 309.03 700.403 308.869 700.403 308.682C700.403 308.494 700.473 308.334 700.612 308.2C700.754 308.067 700.923 308 701.119 308C701.315 308 701.483 308.067 701.622 308.2C701.764 308.334 701.835 308.494 701.835 308.682C701.835 308.869 701.764 309.03 701.622 309.163C701.483 309.297 701.315 309.364 701.119 309.364ZM706.114 317.136C705.524 317.136 705.005 316.996 704.559 316.714C704.116 316.433 703.769 316.04 703.519 315.534C703.272 315.028 703.149 314.437 703.149 313.761C703.149 313.08 703.272 312.484 703.519 311.976C703.769 311.467 704.116 311.072 704.559 310.791C705.005 310.51 705.524 310.369 706.114 310.369C706.705 310.369 707.222 310.51 707.666 310.791C708.112 311.072 708.458 311.467 708.705 311.976C708.955 312.484 709.08 313.08 709.08 313.761C709.08 314.437 708.955 315.028 708.705 315.534C708.458 316.04 708.112 316.433 707.666 316.714C707.222 316.996 706.705 317.136 706.114 317.136ZM706.114 316.233C706.563 316.233 706.933 316.118 707.222 315.888C707.512 315.658 707.727 315.355 707.866 314.98C708.005 314.605 708.075 314.199 708.075 313.761C708.075 313.324 708.005 312.916 707.866 312.538C707.727 312.16 707.512 311.855 707.222 311.622C706.933 311.389 706.563 311.273 706.114 311.273C705.666 311.273 705.296 311.389 705.007 311.622C704.717 311.855 704.502 312.16 704.363 312.538C704.224 312.916 704.154 313.324 704.154 313.761C704.154 314.199 704.224 314.605 704.363 314.98C704.502 315.355 704.717 315.658 705.007 315.888C705.296 316.118 705.666 316.233 706.114 316.233ZM711.621 313.062L711.621 317H710.616L710.616 310.455H711.587L711.587 311.477H711.672C711.826 311.145 712.059 310.878 712.371 310.676C712.684 310.472 713.087 310.369 713.581 310.369C714.025 310.369 714.412 310.46 714.745 310.642C715.077 310.821 715.336 311.094 715.52 311.46C715.705 311.824 715.797 312.284 715.797 312.841L715.797 317H714.792L714.792 312.909C714.792 312.395 714.658 311.994 714.391 311.707C714.124 311.418 713.758 311.273 713.292 311.273C712.971 311.273 712.684 311.342 712.431 311.482C712.181 311.621 711.983 311.824 711.839 312.091C711.694 312.358 711.621 312.682 711.621 313.062ZM719.561 317.153C719.146 317.153 718.77 317.075 718.432 316.919C718.094 316.76 717.825 316.531 717.627 316.233C717.428 315.932 717.328 315.568 717.328 315.142C717.328 314.767 717.402 314.463 717.55 314.23C717.698 313.994 717.895 313.81 718.142 313.676C718.389 313.543 718.662 313.443 718.96 313.378C719.261 313.31 719.564 313.256 719.868 313.216C720.266 313.165 720.588 313.126 720.835 313.101C721.085 313.072 721.267 313.026 721.381 312.96C721.497 312.895 721.556 312.781 721.556 312.619L721.556 312.585C721.556 312.165 721.44 311.838 721.21 311.605C720.983 311.372 720.638 311.256 720.175 311.256C719.695 311.256 719.318 311.361 719.046 311.571C718.773 311.781 718.581 312.006 718.47 312.244L717.516 311.903C717.686 311.506 717.913 311.196 718.198 310.974C718.484 310.75 718.797 310.594 719.135 310.506C719.476 310.415 719.811 310.369 720.141 310.369C720.351 310.369 720.592 310.395 720.865 310.446C721.141 310.494 721.406 310.595 721.662 310.749C721.921 310.902 722.135 311.133 722.306 311.443C722.476 311.753 722.561 312.168 722.561 312.687L722.561 317H721.556L721.556 316.114H721.504C721.436 316.256 721.323 316.408 721.163 316.57C721.004 316.732 720.793 316.869 720.529 316.983C720.264 317.097 719.942 317.153 719.561 317.153ZM719.715 316.25C720.112 316.25 720.448 316.172 720.72 316.016C720.996 315.859 721.203 315.658 721.342 315.41C721.484 315.163 721.556 314.903 721.556 314.631L721.556 313.71C721.513 313.761 721.419 313.808 721.274 313.851C721.132 313.891 720.967 313.926 720.78 313.957C720.595 313.986 720.415 314.011 720.239 314.034C720.065 314.054 719.925 314.071 719.817 314.085C719.556 314.119 719.311 314.175 719.084 314.251C718.859 314.325 718.678 314.437 718.538 314.588C718.402 314.736 718.334 314.937 718.334 315.193C718.334 315.543 718.463 315.807 718.722 315.986C718.983 316.162 719.314 316.25 719.715 316.25ZM725.402 308.273L725.402 317H724.397L724.397 308.273H725.402Z" fill="white"/>
<g filter="url(#filter5_f_5_156)">
<ellipse cx="518.5" cy="242" rx="243.5" ry="101" fill="#30DFBC" fill-opacity="0.1"/>
</g>
<defs>
<filter id="filter0_f_5_156" x="272.976" y="185.594" width="493.302" height="289.88" filterUnits="userSpaceOnUse" color-interpolation-filters="sRGB">
<feFlood flood-opacity="0" result="BackgroundImageFix"/>
<feBlend mode="normal" in="SourceGraphic" in2="BackgroundImageFix" result="shape"/>
<feGaussianBlur stdDeviation="3" result="effect1_foregroundBlur_5_156"/>
</filter>
<filter id="filter1_f_5_156" x="276.341" y="321.524" width="231.681" height="152.452" filterUnits="userSpaceOnUse" color-interpolation-filters="sRGB">
<feFlood flood-opacity="0" result="BackgroundImageFix"/>
<feBlend mode="normal" in="SourceGraphic" in2="BackgroundImageFix" result="shape"/>
<feGaussianBlur stdDeviation="3" result="effect1_foregroundBlur_5_156"/>
</filter>
<filter id="filter2_f_5_156" x="453.576" y="355.975" width="286.647" height="119.495" filterUnits="userSpaceOnUse" color-interpolation-filters="sRGB">
<feFlood flood-opacity="0" result="BackgroundImageFix"/>
<feBlend mode="normal" in="SourceGraphic" in2="BackgroundImageFix" result="shape"/>
<feGaussianBlur stdDeviation="3" result="effect1_foregroundBlur_5_156"/>
</filter>
<filter id="filter3_f_5_156" x="598.639" y="226.192" width="167.648" height="175.643" filterUnits="userSpaceOnUse" color-interpolation-filters="sRGB">
<feFlood flood-opacity="0" result="BackgroundImageFix"/>
<feBlend mode="normal" in="SourceGraphic" in2="BackgroundImageFix" result="shape"/>
<feGaussianBlur stdDeviation="3" result="effect1_foregroundBlur_5_156"/>
</filter>
<filter id="filter4_f_5_156" x="404.374" y="185.593" width="291.419" height="101.817" filterUnits="userSpaceOnUse" color-interpolation-filters="sRGB">
<feFlood flood-opacity="0" result="BackgroundImageFix"/>
<feBlend mode="normal" in="SourceGraphic" in2="BackgroundImageFix" result="shape"/>
<feGaussianBlur stdDeviation="3" result="effect1_foregroundBlur_5_156"/>
</filter>
<filter id="filter5_f_5_156" x="151" y="17" width="735" height="450" filterUnits="userSpaceOnUse" color-interpolation-filters="sRGB">
<feFlood flood-opacity="0" result="BackgroundImageFix"/>
<feBlend mode="normal" in="SourceGraphic" in2="BackgroundImageFix" result="shape"/>
<feGaussianBlur stdDeviation="62" result="effect1_foregroundBlur_5_156"/>
</filter>
<linearGradient id="paint0_linear_5_156" x1="179.295" y1="330.534" x2="859.959" y2="330.534" gradientUnits="userSpaceOnUse">
<stop stop-color="#15F3C0"/>
<stop offset="1" stop-color="#09022B"/>
</linearGradient>
<linearGradient id="paint1_linear_5_156" x1="521.075" y1="464.402" x2="324.093" y2="282.414" gradientUnits="userSpaceOnUse">
<stop stop-color="#15F3C0"/>
<stop offset="1" stop-color="#09022B"/>
</linearGradient>
<linearGradient id="paint2_linear_5_156" x1="739.984" y1="372.212" x2="619.183" y2="568.839" gradientUnits="userSpaceOnUse">
<stop stop-color="#15F3C0"/>
<stop offset="1" stop-color="#09022B"/>
</linearGradient>
<linearGradient id="paint3_linear_5_156" x1="656.496" y1="222.464" x2="707.714" y2="412.774" gradientUnits="userSpaceOnUse">
<stop stop-color="#15F3C0"/>
<stop offset="1" stop-color="#09022B"/>
</linearGradient>
<linearGradient id="paint4_linear_5_156" x1="384.082" y1="221.917" x2="693.055" y2="157.342" gradientUnits="userSpaceOnUse">
<stop stop-color="#15F3C0"/>
<stop offset="1" stop-color="#09022B"/>
</linearGradient>
<linearGradient id="paint5_linear_5_156" x1="230.5" y1="409" x2="488" y2="175" gradientUnits="userSpaceOnUse">
<stop stop-color="#15F3C0"/>
<stop offset="1" stop-color="#09022B"/>
</linearGradient>
<linearGradient id="paint6_linear_5_156" x1="521.075" y1="450.402" x2="324.093" y2="268.413" gradientUnits="userSpaceOnUse">
<stop stop-color="#15F3C0"/>
<stop offset="1" stop-color="#09022B"/>
</linearGradient>
<linearGradient id="paint7_linear_5_156" x1="739.984" y1="358.212" x2="619.183" y2="554.839" gradientUnits="userSpaceOnUse">
<stop stop-color="#15F3C0"/>
<stop offset="1" stop-color="#09022B"/>
</linearGradient>
<linearGradient id="paint8_linear_5_156" x1="656.497" y1="208.464" x2="707.715" y2="398.774" gradientUnits="userSpaceOnUse">
<stop stop-color="#15F3C0"/>
<stop offset="1" stop-color="#09022B"/>
</linearGradient>
<linearGradient id="paint9_linear_5_156" x1="384.082" y1="207.917" x2="693.055" y2="143.342" gradientUnits="userSpaceOnUse">
<stop stop-color="#15F3C0"/>
<stop offset="1" stop-color="#09022B"/>
</linearGradient>
</defs>
</svg>
