<svg width="589" height="395" viewBox="0 0 589 395" fill="none" xmlns="http://www.w3.org/2000/svg">
<line opacity="0.12" x1="239.866" y1="105.5" x2="265.366" y2="149.667" stroke="url(#paint0_linear_5_126)" stroke-width="2"/>
<line opacity="0.12" x1="188" y1="196" x2="239" y2="196" stroke="url(#paint1_linear_5_126)" stroke-width="2"/>
<line opacity="0.12" x1="247.134" y1="289.667" x2="272.634" y2="245.5" stroke="url(#paint2_linear_5_126)" stroke-width="2"/>
<line opacity="0.12" x1="357.634" y1="290.667" x2="332.134" y2="246.5" stroke="url(#paint3_linear_5_126)" stroke-width="2"/>
<line opacity="0.12" x1="409.5" y1="200.167" x2="358.5" y2="200.167" stroke="url(#paint4_linear_5_126)" stroke-width="2"/>
<line opacity="0.12" x1="350.366" y1="106.5" x2="324.866" y2="150.667" stroke="url(#paint5_linear_5_126)" stroke-width="2"/>
<g opacity="0.3" filter="url(#filter0_i_5_126)">
<path d="M223 273.309C225.475 271.88 228.525 271.88 231 273.309L276.694 299.691C279.169 301.12 280.694 303.761 280.694 306.619L280.694 359.381C280.694 362.239 279.169 364.88 276.694 366.309L231 392.691C228.525 394.12 225.475 394.12 223 392.691L177.306 366.309C174.831 364.88 173.306 362.239 173.306 359.381L173.306 306.619C173.306 303.761 174.831 301.12 177.306 299.691L223 273.309Z" fill="url(#paint6_linear_5_126)"/>
</g>
<g opacity="0.3" filter="url(#filter1_i_5_126)">
<path d="M380 273.309C382.475 271.88 385.525 271.88 388 273.309L433.694 299.691C436.169 301.12 437.694 303.761 437.694 306.619L437.694 359.381C437.694 362.239 436.169 364.88 433.694 366.309L388 392.691C385.525 394.12 382.475 394.12 380 392.691L334.306 366.309C331.831 364.88 330.306 362.239 330.306 359.381L330.306 306.619C330.306 303.761 331.831 301.12 334.306 299.691L380 273.309Z" fill="url(#paint7_linear_5_126)"/>
</g>
<g opacity="0.3" filter="url(#filter2_i_5_126)">
<path d="M223 6.30941C225.475 4.88035 228.525 4.88035 231 6.30941L276.694 32.6906C279.169 34.1197 280.694 36.7607 280.694 39.6188L280.694 92.3812C280.694 95.2393 279.169 97.8804 276.694 99.3094L231 125.691C228.525 127.12 225.475 127.12 223 125.691L177.306 99.3094C174.831 97.8803 173.306 95.2393 173.306 92.3812L173.306 39.6188C173.306 36.7607 174.831 34.1197 177.306 32.6906L223 6.30941Z" fill="url(#paint8_linear_5_126)"/>
</g>
<g opacity="0.3" filter="url(#filter3_i_5_126)">
<path d="M380 6.30941C382.475 4.88035 385.525 4.88035 388 6.30941L433.694 32.6906C436.169 34.1197 437.694 36.7607 437.694 39.6188L437.694 92.3812C437.694 95.2393 436.169 97.8804 433.694 99.3094L388 125.691C385.525 127.12 382.475 127.12 380 125.691L334.306 99.3094C331.831 97.8803 330.306 95.2393 330.306 92.3812L330.306 39.6188C330.306 36.7607 331.831 34.1197 334.306 32.6906L380 6.30941Z" fill="url(#paint9_linear_5_126)"/>
</g>
<g opacity="0.3" filter="url(#filter4_i_5_126)">
<path d="M142 140.309C144.475 138.88 147.525 138.88 150 140.309L195.694 166.691C198.169 168.12 199.694 170.761 199.694 173.619L199.694 226.381C199.694 229.239 198.169 231.88 195.694 233.309L150 259.691C147.525 261.12 144.475 261.12 142 259.691L96.3064 233.309C93.8312 231.88 92.3064 229.239 92.3064 226.381L92.3064 173.619C92.3064 170.761 93.8312 168.12 96.3064 166.691L142 140.309Z" fill="url(#paint10_linear_5_126)"/>
</g>
<g opacity="0.3" filter="url(#filter5_i_5_126)">
<path d="M298 125.309C300.475 123.88 303.525 123.88 306 125.309L364.684 159.191C367.159 160.62 368.684 163.261 368.684 166.119V233.881C368.684 236.739 367.159 239.38 364.684 240.809L306 274.691C303.525 276.12 300.475 276.12 298 274.691L239.316 240.809C236.841 239.38 235.316 236.739 235.316 233.881V166.119C235.316 163.261 236.841 160.62 239.316 159.191L298 125.309Z" fill="url(#paint11_linear_5_126)"/>
</g>
<g opacity="0.3" filter="url(#filter6_i_5_126)">
<path d="M454 140.309C456.475 138.88 459.525 138.88 462 140.309L507.694 166.691C510.169 168.12 511.694 170.761 511.694 173.619L511.694 226.381C511.694 229.239 510.169 231.88 507.694 233.309L462 259.691C459.525 261.12 456.475 261.12 454 259.691L408.306 233.309C405.831 231.88 404.306 229.239 404.306 226.381L404.306 173.619C404.306 170.761 405.831 168.12 408.306 166.691L454 140.309Z" fill="url(#paint12_linear_5_126)"/>
</g>
<g filter="url(#filter7_i_5_126)">
<path d="M218 269.309C220.475 267.88 223.525 267.88 226 269.309L271.694 295.691C274.169 297.12 275.694 299.761 275.694 302.619L275.694 355.381C275.694 358.239 274.169 360.88 271.694 362.309L226 388.691C223.525 390.12 220.475 390.12 218 388.691L172.306 362.309C169.831 360.88 168.306 358.239 168.306 355.381L168.306 302.619C168.306 299.761 169.831 297.12 172.306 295.691L218 269.309Z" fill="url(#paint13_linear_5_126)"/>
</g>
<g filter="url(#filter8_i_5_126)">
<path d="M375 269.309C377.475 267.88 380.525 267.88 383 269.309L428.694 295.691C431.169 297.12 432.694 299.761 432.694 302.619L432.694 355.381C432.694 358.239 431.169 360.88 428.694 362.309L383 388.691C380.525 390.12 377.475 390.12 375 388.691L329.306 362.309C326.831 360.88 325.306 358.239 325.306 355.381L325.306 302.619C325.306 299.761 326.831 297.12 329.306 295.691L375 269.309Z" fill="url(#paint14_linear_5_126)"/>
</g>
<g filter="url(#filter9_i_5_126)">
<path d="M218 2.30941C220.475 0.880349 223.525 0.88035 226 2.30941L271.694 28.6906C274.169 30.1197 275.694 32.7607 275.694 35.6188L275.694 88.3812C275.694 91.2393 274.169 93.8804 271.694 95.3094L226 121.691C223.525 123.12 220.475 123.12 218 121.691L172.306 95.3094C169.831 93.8803 168.306 91.2393 168.306 88.3812L168.306 35.6188C168.306 32.7607 169.831 30.1197 172.306 28.6906L218 2.30941Z" fill="url(#paint15_linear_5_126)"/>
</g>
<g filter="url(#filter10_i_5_126)">
<path d="M375 2.30941C377.475 0.880349 380.525 0.88035 383 2.30941L428.694 28.6906C431.169 30.1197 432.694 32.7607 432.694 35.6188L432.694 88.3812C432.694 91.2393 431.169 93.8804 428.694 95.3094L383 121.691C380.525 123.12 377.475 123.12 375 121.691L329.306 95.3094C326.831 93.8803 325.306 91.2393 325.306 88.3812L325.306 35.6188C325.306 32.7607 326.831 30.1197 329.306 28.6906L375 2.30941Z" fill="url(#paint16_linear_5_126)"/>
</g>
<g filter="url(#filter11_i_5_126)">
<path d="M137 136.309C139.475 134.88 142.525 134.88 145 136.309L190.694 162.691C193.169 164.12 194.694 166.761 194.694 169.619L194.694 222.381C194.694 225.239 193.169 227.88 190.694 229.309L145 255.691C142.525 257.12 139.475 257.12 137 255.691L91.3064 229.309C88.8312 227.88 87.3064 225.239 87.3064 222.381L87.3064 169.619C87.3064 166.761 88.8312 164.12 91.3064 162.691L137 136.309Z" fill="url(#paint17_linear_5_126)"/>
</g>
<g filter="url(#filter12_i_5_126)">
<path d="M293 121.309C295.475 119.88 298.525 119.88 301 121.309L359.684 155.191C362.159 156.62 363.684 159.261 363.684 162.119V229.881C363.684 232.739 362.159 235.38 359.684 236.809L301 270.691C298.525 272.12 295.475 272.12 293 270.691L234.316 236.809C231.841 235.38 230.316 232.739 230.316 229.881V162.119C230.316 159.261 231.841 156.62 234.316 155.191L293 121.309Z" fill="url(#paint18_linear_5_126)"/>
</g>
<g filter="url(#filter13_i_5_126)">
<path d="M449 136.309C451.475 134.88 454.525 134.88 457 136.309L502.694 162.691C505.169 164.12 506.694 166.761 506.694 169.619L506.694 222.381C506.694 225.239 505.169 227.88 502.694 229.309L457 255.691C454.525 257.12 451.475 257.12 449 255.691L403.306 229.309C400.831 227.88 399.306 225.239 399.306 222.381L399.306 169.619C399.306 166.761 400.831 164.12 403.306 162.691L449 136.309Z" fill="url(#paint19_linear_5_126)"/>
</g>
<path d="M231.696 203H230.463C230.39 202.645 230.262 202.334 230.08 202.065C229.901 201.797 229.682 201.571 229.424 201.389C229.168 201.204 228.885 201.064 228.574 200.972C228.262 200.879 227.937 200.832 227.599 200.832C226.983 200.832 226.424 200.988 225.924 201.3C225.426 201.611 225.03 202.07 224.735 202.677C224.444 203.283 224.298 204.027 224.298 204.909C224.298 205.791 224.444 206.535 224.735 207.141C225.03 207.748 225.426 208.207 225.924 208.518C226.424 208.83 226.983 208.986 227.599 208.986C227.937 208.986 228.262 208.939 228.574 208.847C228.885 208.754 229.168 208.616 229.424 208.434C229.682 208.248 229.901 208.021 230.08 207.753C230.262 207.481 230.39 207.17 230.463 206.818H231.696C231.603 207.339 231.434 207.804 231.189 208.215C230.943 208.626 230.638 208.976 230.274 209.264C229.909 209.549 229.5 209.766 229.046 209.915C228.595 210.065 228.113 210.139 227.599 210.139C226.731 210.139 225.958 209.927 225.282 209.503C224.606 209.079 224.074 208.475 223.686 207.693C223.299 206.911 223.105 205.983 223.105 204.909C223.105 203.835 223.299 202.907 223.686 202.125C224.074 201.343 224.606 200.74 225.282 200.315C225.958 199.891 226.731 199.679 227.599 199.679C228.113 199.679 228.595 199.754 229.046 199.903C229.5 200.052 229.909 200.271 230.274 200.559C230.638 200.844 230.943 201.192 231.189 201.603C231.434 202.011 231.603 202.476 231.696 203ZM233.529 210V202.364H234.702V210H233.529ZM234.126 201.091C233.897 201.091 233.7 201.013 233.534 200.857C233.372 200.701 233.29 200.514 233.29 200.295C233.29 200.077 233.372 199.889 233.534 199.734C233.7 199.578 233.897 199.5 234.126 199.5C234.354 199.5 234.55 199.578 234.712 199.734C234.878 199.889 234.961 200.077 234.961 200.295C234.961 200.514 234.878 200.701 234.712 200.857C234.55 201.013 234.354 201.091 234.126 201.091ZM243.096 202.364L240.272 210H239.078L236.255 202.364H237.527L239.635 208.449H239.715L241.823 202.364H243.096ZM244.644 210V202.364H245.817V210H244.644ZM245.241 201.091C245.012 201.091 244.815 201.013 244.649 200.857C244.487 200.701 244.406 200.514 244.406 200.295C244.406 200.077 244.487 199.889 244.649 199.734C244.815 199.578 245.012 199.5 245.241 199.5C245.469 199.5 245.665 199.578 245.827 199.734C245.993 199.889 246.076 200.077 246.076 200.295C246.076 200.514 245.993 200.701 245.827 200.857C245.665 201.013 245.469 201.091 245.241 201.091ZM249.14 199.818V210H247.966V199.818H249.14ZM251.289 210V202.364H252.462V210H251.289ZM251.885 201.091C251.657 201.091 251.459 201.013 251.294 200.857C251.131 200.701 251.05 200.514 251.05 200.295C251.05 200.077 251.131 199.889 251.294 199.734C251.459 199.578 251.657 199.5 251.885 199.5C252.114 199.5 252.31 199.578 252.472 199.734C252.638 199.889 252.721 200.077 252.721 200.295C252.721 200.514 252.638 200.701 252.472 200.857C252.31 201.013 252.114 201.091 251.885 201.091ZM254.392 210V209.105L258.727 203.537V203.457H254.531V202.364H260.239V203.298L256.023 208.827V208.906H260.378V210H254.392ZM264.432 210.179C263.948 210.179 263.509 210.088 263.115 209.906C262.72 209.72 262.407 209.453 262.175 209.105C261.943 208.754 261.827 208.33 261.827 207.832C261.827 207.395 261.913 207.04 262.086 206.768C262.258 206.493 262.488 206.278 262.777 206.122C263.065 205.966 263.383 205.85 263.731 205.774C264.083 205.695 264.436 205.632 264.79 205.585C265.254 205.526 265.631 205.481 265.919 205.451C266.211 205.418 266.423 205.363 266.555 205.287C266.691 205.211 266.759 205.078 266.759 204.889V204.849C266.759 204.359 266.625 203.978 266.356 203.706C266.091 203.434 265.689 203.298 265.148 203.298C264.588 203.298 264.149 203.421 263.831 203.666C263.513 203.911 263.289 204.173 263.16 204.452L262.046 204.054C262.245 203.59 262.51 203.229 262.841 202.97C263.176 202.708 263.541 202.526 263.935 202.423C264.333 202.317 264.724 202.264 265.108 202.264C265.354 202.264 265.635 202.294 265.954 202.354C266.275 202.41 266.585 202.528 266.883 202.707C267.185 202.886 267.435 203.156 267.634 203.517C267.833 203.878 267.932 204.362 267.932 204.969V210H266.759V208.966H266.699C266.62 209.132 266.487 209.309 266.302 209.498C266.116 209.687 265.869 209.848 265.561 209.98C265.253 210.113 264.876 210.179 264.432 210.179ZM264.611 209.125C265.075 209.125 265.466 209.034 265.785 208.852C266.106 208.669 266.348 208.434 266.51 208.146C266.676 207.857 266.759 207.554 266.759 207.236V206.162C266.709 206.222 266.6 206.276 266.431 206.326C266.265 206.372 266.073 206.414 265.854 206.45C265.639 206.483 265.428 206.513 265.223 206.54C265.021 206.563 264.857 206.583 264.731 206.599C264.426 206.639 264.141 206.704 263.876 206.793C263.614 206.879 263.402 207.01 263.239 207.186C263.08 207.358 263.001 207.594 263.001 207.892C263.001 208.3 263.151 208.608 263.453 208.817C263.758 209.022 264.144 209.125 264.611 209.125ZM273.395 202.364V203.358H269.438V202.364H273.395ZM270.591 200.534H271.764V207.812C271.764 208.144 271.812 208.393 271.908 208.558C272.008 208.721 272.134 208.83 272.286 208.886C272.442 208.939 272.606 208.966 272.778 208.966C272.908 208.966 273.014 208.959 273.097 208.946C273.179 208.929 273.246 208.916 273.295 208.906L273.534 209.96C273.455 209.99 273.344 210.02 273.201 210.05C273.058 210.083 272.878 210.099 272.659 210.099C272.328 210.099 272.003 210.028 271.685 209.886C271.37 209.743 271.108 209.526 270.899 209.234C270.694 208.943 270.591 208.575 270.591 208.131V200.534ZM275.16 210V202.364H276.333V210H275.16ZM275.756 201.091C275.528 201.091 275.33 201.013 275.165 200.857C275.002 200.701 274.921 200.514 274.921 200.295C274.921 200.077 275.002 199.889 275.165 199.734C275.33 199.578 275.528 199.5 275.756 199.5C275.985 199.5 276.181 199.578 276.343 199.734C276.509 199.889 276.592 200.077 276.592 200.295C276.592 200.514 276.509 200.701 276.343 200.857C276.181 201.013 275.985 201.091 275.756 201.091ZM281.584 210.159C280.895 210.159 280.29 209.995 279.77 209.667C279.253 209.339 278.848 208.88 278.557 208.29C278.268 207.7 278.124 207.01 278.124 206.222C278.124 205.426 278.268 204.732 278.557 204.138C278.848 203.545 279.253 203.085 279.77 202.756C280.29 202.428 280.895 202.264 281.584 202.264C282.274 202.264 282.877 202.428 283.394 202.756C283.914 203.085 284.319 203.545 284.607 204.138C284.899 204.732 285.045 205.426 285.045 206.222C285.045 207.01 284.899 207.7 284.607 208.29C284.319 208.88 283.914 209.339 283.394 209.667C282.877 209.995 282.274 210.159 281.584 210.159ZM281.584 209.105C282.108 209.105 282.539 208.971 282.877 208.702C283.215 208.434 283.465 208.081 283.628 207.643C283.79 207.206 283.871 206.732 283.871 206.222C283.871 205.711 283.79 205.236 283.628 204.795C283.465 204.354 283.215 203.998 282.877 203.726C282.539 203.454 282.108 203.318 281.584 203.318C281.061 203.318 280.63 203.454 280.292 203.726C279.954 203.998 279.703 204.354 279.541 204.795C279.379 205.236 279.297 205.711 279.297 206.222C279.297 206.732 279.379 207.206 279.541 207.643C279.703 208.081 279.954 208.434 280.292 208.702C280.63 208.971 281.061 209.105 281.584 209.105ZM288.009 205.406V210H286.836V202.364H287.969V203.557H288.069C288.248 203.169 288.519 202.857 288.884 202.622C289.248 202.384 289.719 202.264 290.296 202.264C290.813 202.264 291.265 202.37 291.653 202.582C292.041 202.791 292.342 203.109 292.558 203.537C292.773 203.961 292.881 204.498 292.881 205.148V210H291.708V205.227C291.708 204.627 291.552 204.16 291.24 203.825C290.929 203.487 290.501 203.318 289.958 203.318C289.583 203.318 289.248 203.399 288.953 203.562C288.662 203.724 288.431 203.961 288.262 204.273C288.093 204.584 288.009 204.962 288.009 205.406ZM299.122 210V199.818H305.227V200.912H300.355V204.352H304.769V205.446H300.355V210H299.122ZM307.097 210V202.364H308.231V203.517H308.31C308.45 203.139 308.701 202.833 309.066 202.597C309.431 202.362 309.842 202.244 310.299 202.244C310.385 202.244 310.493 202.246 310.622 202.249C310.751 202.253 310.849 202.258 310.915 202.264V203.457C310.876 203.447 310.785 203.433 310.642 203.413C310.503 203.389 310.355 203.378 310.2 203.378C309.828 203.378 309.497 203.456 309.205 203.612C308.917 203.764 308.688 203.976 308.519 204.248C308.353 204.516 308.271 204.823 308.271 205.168V210H307.097ZM314.553 210.179C314.07 210.179 313.63 210.088 313.236 209.906C312.842 209.72 312.528 209.453 312.296 209.105C312.064 208.754 311.948 208.33 311.948 207.832C311.948 207.395 312.035 207.04 312.207 206.768C312.379 206.493 312.61 206.278 312.898 206.122C313.186 205.966 313.504 205.85 313.852 205.774C314.204 205.695 314.557 205.632 314.911 205.585C315.375 205.526 315.752 205.481 316.04 205.451C316.332 205.418 316.544 205.363 316.676 205.287C316.812 205.211 316.88 205.078 316.88 204.889V204.849C316.88 204.359 316.746 203.978 316.477 203.706C316.212 203.434 315.81 203.298 315.269 203.298C314.709 203.298 314.27 203.421 313.952 203.666C313.634 203.911 313.41 204.173 313.281 204.452L312.167 204.054C312.366 203.59 312.631 203.229 312.963 202.97C313.297 202.708 313.662 202.526 314.056 202.423C314.454 202.317 314.845 202.264 315.23 202.264C315.475 202.264 315.757 202.294 316.075 202.354C316.396 202.41 316.706 202.528 317.004 202.707C317.306 202.886 317.556 203.156 317.755 203.517C317.954 203.878 318.053 204.362 318.053 204.969V210H316.88V208.966H316.82C316.741 209.132 316.608 209.309 316.423 209.498C316.237 209.687 315.99 209.848 315.682 209.98C315.374 210.113 314.998 210.179 314.553 210.179ZM314.732 209.125C315.196 209.125 315.588 209.034 315.906 208.852C316.227 208.669 316.469 208.434 316.632 208.146C316.797 207.857 316.88 207.554 316.88 207.236V206.162C316.83 206.222 316.721 206.276 316.552 206.326C316.386 206.372 316.194 206.414 315.975 206.45C315.76 206.483 315.549 206.513 315.344 206.54C315.142 206.563 314.978 206.583 314.852 206.599C314.547 206.639 314.262 206.704 313.997 206.793C313.735 206.879 313.523 207.01 313.36 207.186C313.201 207.358 313.122 207.594 313.122 207.892C313.122 208.3 313.272 208.608 313.574 208.817C313.879 209.022 314.265 209.125 314.732 209.125ZM320.195 210V202.364H321.328V203.557L321.428 203.557C321.587 203.149 321.844 202.833 322.199 202.607C322.553 202.379 322.979 202.264 323.476 202.264C323.98 202.264 324.399 202.379 324.734 202.607C325.072 202.833 325.336 203.149 325.525 203.557H325.604C325.8 203.162 326.093 202.849 326.484 202.617C326.875 202.382 327.344 202.264 327.891 202.264C328.574 202.264 329.132 202.478 329.566 202.906C330.001 203.33 330.218 203.991 330.218 204.889V210H329.044V204.889C329.044 204.326 328.89 203.923 328.582 203.681C328.274 203.439 327.911 203.318 327.493 203.318C326.956 203.318 326.54 203.481 326.245 203.805C325.95 204.127 325.803 204.535 325.803 205.028V210H324.61V204.77C324.61 204.336 324.469 203.986 324.187 203.721C323.905 203.452 323.542 203.318 323.098 203.318C322.793 203.318 322.508 203.399 322.243 203.562C321.981 203.724 321.769 203.95 321.607 204.238C321.448 204.523 321.368 204.853 321.368 205.227V210H320.195ZM335.565 210.159C334.829 210.159 334.194 209.997 333.661 209.672C333.13 209.344 332.721 208.886 332.433 208.3C332.147 207.71 332.005 207.024 332.005 206.241C332.005 205.459 332.147 204.77 332.433 204.173C332.721 203.573 333.122 203.106 333.636 202.771C334.153 202.433 334.756 202.264 335.445 202.264C335.843 202.264 336.236 202.33 336.624 202.463C337.011 202.596 337.364 202.811 337.683 203.109C338.001 203.404 338.254 203.795 338.443 204.283C338.632 204.77 338.727 205.37 338.727 206.082V206.58H332.84V205.565H337.533C337.533 205.134 337.447 204.75 337.275 204.412C337.106 204.074 336.864 203.807 336.549 203.612C336.237 203.416 335.87 203.318 335.445 203.318C334.978 203.318 334.574 203.434 334.232 203.666C333.894 203.895 333.634 204.193 333.452 204.561C333.269 204.929 333.178 205.323 333.178 205.744V206.42C333.178 206.997 333.278 207.486 333.477 207.887C333.679 208.285 333.959 208.588 334.317 208.797C334.675 209.002 335.091 209.105 335.565 209.105C335.873 209.105 336.151 209.062 336.4 208.976C336.652 208.886 336.869 208.754 337.051 208.578C337.233 208.399 337.374 208.177 337.474 207.912L338.607 208.23C338.488 208.615 338.287 208.953 338.006 209.244C337.724 209.533 337.376 209.758 336.962 209.92C336.547 210.08 336.082 210.159 335.565 210.159ZM342.241 210L339.915 202.364H341.148L342.798 208.21H342.878L344.509 202.364H345.761L347.372 208.19H347.452L349.102 202.364H350.335L348.009 210H346.855L345.185 204.134H345.065L343.395 210H342.241ZM354.729 210.159C354.039 210.159 353.435 209.995 352.914 209.667C352.397 209.339 351.993 208.88 351.701 208.29C351.413 207.7 351.269 207.01 351.269 206.222C351.269 205.426 351.413 204.732 351.701 204.138C351.993 203.545 352.397 203.085 352.914 202.756C353.435 202.428 354.039 202.264 354.729 202.264C355.418 202.264 356.021 202.428 356.539 202.756C357.059 203.085 357.463 203.545 357.752 204.138C358.043 204.732 358.189 205.426 358.189 206.222C358.189 207.01 358.043 207.7 357.752 208.29C357.463 208.88 357.059 209.339 356.539 209.667C356.021 209.995 355.418 210.159 354.729 210.159ZM354.729 209.105C355.253 209.105 355.683 208.971 356.021 208.702C356.36 208.434 356.61 208.081 356.772 207.643C356.935 207.206 357.016 206.732 357.016 206.222C357.016 205.711 356.935 205.236 356.772 204.795C356.61 204.354 356.36 203.998 356.021 203.726C355.683 203.454 355.253 203.318 354.729 203.318C354.205 203.318 353.774 203.454 353.436 203.726C353.098 203.998 352.848 204.354 352.686 204.795C352.523 205.236 352.442 205.711 352.442 206.222C352.442 206.732 352.523 207.206 352.686 207.643C352.848 208.081 353.098 208.434 353.436 208.702C353.774 208.971 354.205 209.105 354.729 209.105ZM359.98 210V202.364H361.114V203.517H361.193C361.332 203.139 361.584 202.833 361.949 202.597C362.313 202.362 362.724 202.244 363.182 202.244C363.268 202.244 363.376 202.246 363.505 202.249C363.634 202.253 363.732 202.258 363.798 202.264V203.457C363.759 203.447 363.667 203.433 363.525 203.413C363.386 203.389 363.238 203.378 363.082 203.378C362.711 203.378 362.38 203.456 362.088 203.612C361.8 203.764 361.571 203.976 361.402 204.248C361.236 204.516 361.153 204.823 361.153 205.168V210H359.98ZM366.283 207.216L366.263 205.764H366.502L369.843 202.364H371.294L367.735 205.963H367.635L366.283 207.216ZM365.189 210V199.818H366.362V210H365.189ZM370.041 210L367.058 206.222L367.894 205.406L371.533 210H370.041Z" fill="white"/>
<path d="M112.08 195H111.023C110.96 194.696 110.851 194.429 110.695 194.199C110.541 193.969 110.354 193.776 110.132 193.619C109.913 193.46 109.67 193.341 109.403 193.261C109.136 193.182 108.858 193.142 108.568 193.142C108.04 193.142 107.561 193.276 107.132 193.543C106.706 193.81 106.366 194.203 106.114 194.723C105.864 195.243 105.739 195.881 105.739 196.636C105.739 197.392 105.864 198.03 106.114 198.55C106.366 199.07 106.706 199.463 107.132 199.73C107.561 199.997 108.04 200.131 108.568 200.131C108.858 200.131 109.136 200.091 109.403 200.011C109.67 199.932 109.913 199.814 110.132 199.658C110.354 199.499 110.541 199.304 110.695 199.074C110.851 198.841 110.96 198.574 111.023 198.273H112.08C112 198.719 111.855 199.118 111.645 199.47C111.435 199.822 111.173 200.122 110.861 200.369C110.548 200.614 110.197 200.8 109.808 200.928C109.422 201.055 109.009 201.119 108.568 201.119C107.824 201.119 107.162 200.938 106.582 200.574C106.003 200.21 105.547 199.693 105.214 199.023C104.882 198.352 104.716 197.557 104.716 196.636C104.716 195.716 104.882 194.92 105.214 194.25C105.547 193.58 106.003 193.062 106.582 192.699C107.162 192.335 107.824 192.153 108.568 192.153C109.009 192.153 109.422 192.217 109.808 192.345C110.197 192.473 110.548 192.661 110.861 192.908C111.173 193.152 111.435 193.45 111.645 193.803C111.855 194.152 112 194.551 112.08 195ZM116.31 201.136C115.719 201.136 115.201 200.996 114.755 200.714C114.311 200.433 113.965 200.04 113.715 199.534C113.468 199.028 113.344 198.437 113.344 197.761C113.344 197.08 113.468 196.484 113.715 195.976C113.965 195.467 114.311 195.072 114.755 194.791C115.201 194.51 115.719 194.369 116.31 194.369C116.901 194.369 117.418 194.51 117.861 194.791C118.307 195.072 118.654 195.467 118.901 195.976C119.151 196.484 119.276 197.08 119.276 197.761C119.276 198.437 119.151 199.028 118.901 199.534C118.654 200.04 118.307 200.433 117.861 200.714C117.418 200.996 116.901 201.136 116.31 201.136ZM116.31 200.233C116.759 200.233 117.128 200.118 117.418 199.888C117.708 199.658 117.922 199.355 118.061 198.98C118.201 198.605 118.27 198.199 118.27 197.761C118.27 197.324 118.201 196.916 118.061 196.538C117.922 196.161 117.708 195.855 117.418 195.622C117.128 195.389 116.759 195.273 116.31 195.273C115.861 195.273 115.492 195.389 115.202 195.622C114.912 195.855 114.698 196.161 114.559 196.538C114.419 196.916 114.35 197.324 114.35 197.761C114.35 198.199 114.419 198.605 114.559 198.98C114.698 199.355 114.912 199.658 115.202 199.888C115.492 200.118 115.861 200.233 116.31 200.233ZM120.811 201V194.455H121.783V195.477H121.868C122.004 195.128 122.224 194.857 122.528 194.663C122.832 194.467 123.197 194.369 123.624 194.369C124.055 194.369 124.415 194.467 124.702 194.663C124.991 194.857 125.217 195.128 125.379 195.477H125.447C125.615 195.139 125.866 194.871 126.202 194.672C126.537 194.47 126.939 194.369 127.408 194.369C127.993 194.369 128.472 194.553 128.844 194.919C129.216 195.283 129.402 195.849 129.402 196.619V201H128.396V196.619C128.396 196.136 128.264 195.791 128 195.584C127.736 195.376 127.425 195.273 127.067 195.273C126.607 195.273 126.25 195.412 125.997 195.69C125.744 195.966 125.618 196.315 125.618 196.739V201H124.595V196.517C124.595 196.145 124.474 195.845 124.233 195.618C123.991 195.388 123.68 195.273 123.3 195.273C123.038 195.273 122.794 195.342 122.567 195.482C122.342 195.621 122.161 195.814 122.021 196.061C121.885 196.305 121.817 196.588 121.817 196.909V201H120.811ZM131.241 203.455V194.455H132.212V195.494H132.332C132.406 195.381 132.508 195.236 132.638 195.06C132.772 194.881 132.962 194.722 133.21 194.582C133.46 194.44 133.798 194.369 134.224 194.369C134.775 194.369 135.261 194.507 135.681 194.783C136.102 195.058 136.43 195.449 136.665 195.955C136.901 196.46 137.019 197.057 137.019 197.744C137.019 198.438 136.901 199.038 136.665 199.547C136.43 200.053 136.103 200.445 135.685 200.723C135.268 200.999 134.786 201.136 134.241 201.136C133.82 201.136 133.484 201.067 133.231 200.928C132.978 200.786 132.783 200.625 132.647 200.446C132.511 200.264 132.406 200.114 132.332 199.994H132.246V203.455H131.241ZM132.229 197.727C132.229 198.222 132.302 198.658 132.447 199.036C132.592 199.411 132.803 199.705 133.082 199.918C133.36 200.128 133.701 200.233 134.104 200.233C134.525 200.233 134.876 200.122 135.157 199.901C135.441 199.676 135.654 199.375 135.796 198.997C135.941 198.616 136.013 198.193 136.013 197.727C136.013 197.267 135.942 196.852 135.8 196.483C135.661 196.111 135.45 195.817 135.165 195.601C134.884 195.382 134.531 195.273 134.104 195.273C133.695 195.273 133.352 195.376 133.073 195.584C132.795 195.788 132.585 196.075 132.442 196.445C132.3 196.811 132.229 197.239 132.229 197.727ZM141.212 201.136C140.621 201.136 140.103 200.996 139.657 200.714C139.214 200.433 138.867 200.04 138.617 199.534C138.37 199.028 138.246 198.437 138.246 197.761C138.246 197.08 138.37 196.484 138.617 195.976C138.867 195.467 139.214 195.072 139.657 194.791C140.103 194.51 140.621 194.369 141.212 194.369C141.803 194.369 142.32 194.51 142.763 194.791C143.21 195.072 143.556 195.467 143.803 195.976C144.053 196.484 144.178 197.08 144.178 197.761C144.178 198.437 144.053 199.028 143.803 199.534C143.556 200.04 143.21 200.433 142.763 200.714C142.32 200.996 141.803 201.136 141.212 201.136ZM141.212 200.233C141.661 200.233 142.031 200.118 142.32 199.888C142.61 199.658 142.825 199.355 142.964 198.98C143.103 198.605 143.173 198.199 143.173 197.761C143.173 197.324 143.103 196.916 142.964 196.538C142.825 196.161 142.61 195.855 142.32 195.622C142.031 195.389 141.661 195.273 141.212 195.273C140.763 195.273 140.394 195.389 140.104 195.622C139.815 195.855 139.6 196.161 139.461 196.538C139.322 196.916 139.252 197.324 139.252 197.761C139.252 198.199 139.322 198.605 139.461 198.98C139.6 199.355 139.815 199.658 140.104 199.888C140.394 200.118 140.763 200.233 141.212 200.233ZM146.719 197.062V201H145.713V194.455H146.685V195.477H146.77C146.924 195.145 147.157 194.878 147.469 194.676C147.782 194.472 148.185 194.369 148.679 194.369C149.123 194.369 149.51 194.46 149.843 194.642C150.175 194.821 150.434 195.094 150.618 195.46C150.803 195.824 150.895 196.284 150.895 196.841V201H149.89V196.909C149.89 196.395 149.756 195.994 149.489 195.707C149.222 195.418 148.855 195.273 148.39 195.273C148.069 195.273 147.782 195.342 147.529 195.482C147.279 195.621 147.081 195.824 146.936 196.091C146.792 196.358 146.719 196.682 146.719 197.062ZM155.477 201.136C154.847 201.136 154.303 200.997 153.845 200.719C153.391 200.438 153.04 200.045 152.793 199.543C152.548 199.037 152.426 198.449 152.426 197.778C152.426 197.108 152.548 196.517 152.793 196.006C153.04 195.491 153.384 195.091 153.824 194.804C154.267 194.514 154.784 194.369 155.375 194.369C155.716 194.369 156.053 194.426 156.385 194.54C156.717 194.653 157.02 194.838 157.293 195.094C157.565 195.347 157.783 195.682 157.945 196.099C158.107 196.517 158.188 197.031 158.188 197.642V198.068H153.142V197.199H157.165C157.165 196.83 157.091 196.5 156.943 196.21C156.798 195.92 156.591 195.692 156.321 195.524C156.054 195.357 155.739 195.273 155.375 195.273C154.974 195.273 154.628 195.372 154.335 195.571C154.045 195.767 153.822 196.023 153.666 196.338C153.51 196.653 153.432 196.991 153.432 197.352V197.932C153.432 198.426 153.517 198.845 153.688 199.189C153.861 199.53 154.101 199.79 154.408 199.969C154.714 200.145 155.071 200.233 155.477 200.233C155.741 200.233 155.98 200.196 156.193 200.122C156.409 200.045 156.595 199.932 156.751 199.781C156.908 199.628 157.028 199.437 157.114 199.21L158.085 199.483C157.983 199.812 157.811 200.102 157.57 200.352C157.328 200.599 157.03 200.793 156.675 200.932C156.32 201.068 155.92 201.136 155.477 201.136ZM160.723 197.062V201H159.717V194.455H160.689V195.477H160.774C160.928 195.145 161.161 194.878 161.473 194.676C161.786 194.472 162.189 194.369 162.683 194.369C163.126 194.369 163.514 194.46 163.847 194.642C164.179 194.821 164.438 195.094 164.622 195.46C164.807 195.824 164.899 196.284 164.899 196.841V201H163.893V196.909C163.893 196.395 163.76 195.994 163.493 195.707C163.226 195.418 162.859 195.273 162.393 195.273C162.072 195.273 161.786 195.342 161.533 195.482C161.283 195.621 161.085 195.824 160.94 196.091C160.795 196.358 160.723 196.682 160.723 197.062ZM169.583 194.455V195.307H166.191V194.455H169.583ZM167.18 192.886H168.186V199.125C168.186 199.409 168.227 199.622 168.309 199.764C168.395 199.903 168.502 199.997 168.633 200.045C168.767 200.091 168.907 200.114 169.055 200.114C169.166 200.114 169.257 200.108 169.328 200.097C169.399 200.082 169.456 200.071 169.498 200.062L169.703 200.966C169.635 200.991 169.539 201.017 169.417 201.043C169.295 201.071 169.14 201.085 168.953 201.085C168.669 201.085 168.39 201.024 168.118 200.902C167.848 200.78 167.623 200.594 167.444 200.344C167.268 200.094 167.18 199.778 167.18 199.398V192.886ZM175.615 195.92L174.712 196.176C174.655 196.026 174.571 195.879 174.461 195.737C174.353 195.592 174.205 195.473 174.017 195.379C173.83 195.286 173.59 195.239 173.297 195.239C172.897 195.239 172.563 195.331 172.296 195.516C172.032 195.697 171.9 195.929 171.9 196.21C171.9 196.46 171.99 196.658 172.172 196.803C172.354 196.947 172.638 197.068 173.025 197.165L173.996 197.403C174.581 197.545 175.017 197.763 175.304 198.055C175.591 198.345 175.735 198.719 175.735 199.176C175.735 199.551 175.627 199.886 175.411 200.182C175.198 200.477 174.9 200.71 174.516 200.881C174.132 201.051 173.686 201.136 173.178 201.136C172.51 201.136 171.958 200.991 171.52 200.702C171.083 200.412 170.806 199.989 170.689 199.432L171.644 199.193C171.735 199.545 171.907 199.81 172.159 199.986C172.415 200.162 172.749 200.25 173.161 200.25C173.63 200.25 174.002 200.151 174.277 199.952C174.556 199.75 174.695 199.509 174.695 199.227C174.695 199 174.615 198.81 174.456 198.656C174.297 198.5 174.053 198.384 173.723 198.307L172.632 198.051C172.033 197.909 171.593 197.689 171.311 197.391C171.033 197.089 170.894 196.713 170.894 196.261C170.894 195.892 170.998 195.565 171.205 195.281C171.415 194.997 171.701 194.774 172.061 194.612C172.425 194.45 172.837 194.369 173.297 194.369C173.945 194.369 174.453 194.511 174.823 194.795C175.195 195.08 175.459 195.455 175.615 195.92Z" fill="white"/>
<path d="M197.057 57.2727H198.318L201.284 64.517H201.386L204.352 57.2727H205.614V66H204.625V59.3693H204.54L201.812 66H200.858L198.131 59.3693H198.045V66H197.057V57.2727ZM210.341 66.1364C209.71 66.1364 209.166 65.9972 208.708 65.7188C208.254 65.4375 207.903 65.0455 207.656 64.5426C207.412 64.0369 207.289 63.4489 207.289 62.7784C207.289 62.108 207.412 61.517 207.656 61.0057C207.903 60.4915 208.247 60.0909 208.687 59.804C209.13 59.5142 209.647 59.3693 210.238 59.3693C210.579 59.3693 210.916 59.4261 211.248 59.5398C211.581 59.6534 211.883 59.8381 212.156 60.0938C212.429 60.3466 212.646 60.6818 212.808 61.0994C212.97 61.517 213.051 62.0312 213.051 62.642V63.0682H208.005V62.1989H212.028C212.028 61.8295 211.954 61.5 211.806 61.2102C211.662 60.9205 211.454 60.6918 211.184 60.5241C210.917 60.3565 210.602 60.2727 210.238 60.2727C209.838 60.2727 209.491 60.3722 209.199 60.571C208.909 60.767 208.686 61.0227 208.529 61.3381C208.373 61.6534 208.295 61.9915 208.295 62.3523V62.9318C208.295 63.4261 208.38 63.8452 208.551 64.1889C208.724 64.5298 208.964 64.7898 209.271 64.9688C209.578 65.1449 209.934 65.233 210.341 65.233C210.605 65.233 210.843 65.196 211.056 65.1222C211.272 65.0455 211.458 64.9318 211.615 64.7812C211.771 64.6278 211.892 64.4375 211.977 64.2102L212.949 64.483C212.846 64.8125 212.674 65.1023 212.433 65.3523C212.191 65.5994 211.893 65.7926 211.538 65.9318C211.183 66.0682 210.784 66.1364 210.341 66.1364ZM217.427 59.4545V60.3068H214.035V59.4545H217.427ZM215.024 57.8864H216.029V64.125C216.029 64.4091 216.071 64.6222 216.153 64.7642C216.238 64.9034 216.346 64.9972 216.477 65.0455C216.61 65.0909 216.751 65.1136 216.899 65.1136C217.01 65.1136 217.1 65.108 217.172 65.0966C217.243 65.0824 217.299 65.071 217.342 65.0625L217.547 65.9659C217.478 65.9915 217.383 66.017 217.261 66.0426C217.139 66.071 216.984 66.0852 216.797 66.0852C216.512 66.0852 216.234 66.0241 215.961 65.902C215.691 65.7798 215.467 65.5938 215.288 65.3438C215.112 65.0938 215.024 64.7784 215.024 64.3977V57.8864ZM218.94 66V59.4545L219.912 59.4545V60.4432H219.98C220.099 60.1193 220.315 59.8565 220.627 59.6548C220.94 59.4531 221.292 59.3523 221.684 59.3523C221.758 59.3523 221.85 59.3537 221.961 59.3565C222.072 59.3594 222.156 59.3636 222.213 59.3693V60.392C222.179 60.3835 222.1 60.3707 221.978 60.3537C221.859 60.3338 221.733 60.3239 221.599 60.3239C221.281 60.3239 220.997 60.3906 220.747 60.5241C220.5 60.6548 220.304 60.8366 220.159 61.0696C220.017 61.2997 219.946 61.5625 219.946 61.858V66H218.94ZM223.405 66V59.4545H224.411V66H223.405ZM223.916 58.3636C223.72 58.3636 223.551 58.2969 223.409 58.1634C223.27 58.0298 223.2 57.8693 223.2 57.6818C223.2 57.4943 223.27 57.3338 223.409 57.2003C223.551 57.0668 223.72 57 223.916 57C224.112 57 224.28 57.0668 224.419 57.2003C224.561 57.3338 224.632 57.4943 224.632 57.6818C224.632 57.8693 224.561 58.0298 224.419 58.1634C224.28 58.2969 224.112 58.3636 223.916 58.3636ZM228.912 66.1364C228.298 66.1364 227.77 65.9915 227.326 65.7017C226.883 65.4119 226.542 65.0128 226.304 64.5043C226.065 63.9957 225.946 63.4148 225.946 62.7614C225.946 62.0966 226.068 61.5099 226.312 61.0014C226.559 60.4901 226.903 60.0909 227.343 59.804C227.787 59.5142 228.304 59.3693 228.895 59.3693C229.355 59.3693 229.77 59.4545 230.139 59.625C230.508 59.7955 230.811 60.0341 231.047 60.3409C231.282 60.6477 231.429 61.0057 231.485 61.4148H230.48C230.403 61.1165 230.233 60.8523 229.968 60.6222C229.707 60.3892 229.355 60.2727 228.912 60.2727C228.52 60.2727 228.176 60.375 227.88 60.5795C227.588 60.7812 227.359 61.0668 227.194 61.4361C227.032 61.8026 226.951 62.233 226.951 62.7273C226.951 63.233 227.031 63.6733 227.19 64.0483C227.352 64.4233 227.579 64.7145 227.872 64.9219C228.167 65.1293 228.514 65.233 228.912 65.233C229.173 65.233 229.41 65.1875 229.623 65.0966C229.836 65.0057 230.017 64.875 230.164 64.7045C230.312 64.5341 230.417 64.3295 230.48 64.0909H231.485C231.429 64.4773 231.288 64.8253 231.064 65.1349C230.842 65.4418 230.548 65.6861 230.181 65.8679C229.818 66.0469 229.395 66.1364 228.912 66.1364ZM237.592 60.9205L236.689 61.1761C236.632 61.0256 236.548 60.8793 236.437 60.7372C236.329 60.5923 236.181 60.473 235.994 60.3793C235.806 60.2855 235.566 60.2386 235.274 60.2386C234.873 60.2386 234.539 60.331 234.272 60.5156C234.008 60.6974 233.876 60.929 233.876 61.2102C233.876 61.4602 233.967 61.6577 234.149 61.8026C234.331 61.9474 234.615 62.0682 235.001 62.1648L235.973 62.4034C236.558 62.5455 236.994 62.7628 237.281 63.0554C237.568 63.3452 237.711 63.7187 237.711 64.1761C237.711 64.5511 237.603 64.8864 237.387 65.1818C237.174 65.4773 236.876 65.7102 236.493 65.8807C236.109 66.0511 235.663 66.1364 235.154 66.1364C234.487 66.1364 233.934 65.9915 233.497 65.7017C233.059 65.4119 232.782 64.9886 232.666 64.4318L233.62 64.1932C233.711 64.5455 233.883 64.8097 234.136 64.9858C234.392 65.1619 234.725 65.25 235.137 65.25C235.606 65.25 235.978 65.1506 236.254 64.9517C236.532 64.75 236.672 64.5085 236.672 64.2273C236.672 64 236.592 63.8097 236.433 63.6563C236.274 63.5 236.029 63.3835 235.7 63.3068L234.609 63.0511C234.01 62.9091 233.569 62.6889 233.288 62.3906C233.01 62.0895 232.87 61.7131 232.87 61.2614C232.87 60.892 232.974 60.5653 233.181 60.2813C233.392 59.9972 233.677 59.7741 234.038 59.6122C234.402 59.4503 234.814 59.3693 235.274 59.3693C235.922 59.3693 236.43 59.5114 236.799 59.7955C237.172 60.0795 237.436 60.4545 237.592 60.9205Z" fill="white"/>
<path d="M355.338 59V50.2727H358.389C358.997 50.2727 359.499 50.3778 359.893 50.5881C360.288 50.7955 360.582 51.0753 360.776 51.4276C360.969 51.777 361.065 52.1648 361.065 52.5909C361.065 52.9659 360.999 53.2756 360.865 53.5199C360.734 53.7642 360.561 53.9574 360.345 54.0994C360.132 54.2415 359.901 54.3466 359.651 54.4148V54.5C359.918 54.517 360.186 54.6108 360.456 54.7812C360.726 54.9517 360.952 55.196 361.134 55.5142C361.315 55.8324 361.406 56.2216 361.406 56.6818C361.406 57.1193 361.307 57.5128 361.108 57.8622C360.909 58.2116 360.595 58.4886 360.166 58.6932C359.737 58.8977 359.179 59 358.491 59H355.338ZM356.395 58.0625H358.491C359.182 58.0625 359.672 57.929 359.962 57.6619C360.254 57.392 360.401 57.0653 360.401 56.6818C360.401 56.3864 360.325 56.1136 360.175 55.8636C360.024 55.6108 359.81 55.4091 359.531 55.2585C359.253 55.1051 358.923 55.0284 358.543 55.0284H356.395V58.0625ZM356.395 54.108H358.355C358.673 54.108 358.96 54.0455 359.216 53.9205C359.474 53.7955 359.679 53.6193 359.83 53.392C359.983 53.1648 360.06 52.8977 360.06 52.5909C360.06 52.2074 359.926 51.8821 359.659 51.6151C359.392 51.3452 358.969 51.2102 358.389 51.2102H356.395V54.108ZM367.131 56.3239V52.4545H368.137V59H367.131V57.892H367.063C366.91 58.2244 366.671 58.5071 366.347 58.7401C366.023 58.9702 365.614 59.0852 365.12 59.0852C364.711 59.0852 364.347 58.9957 364.029 58.8168C363.711 58.6349 363.461 58.3622 363.279 57.9986C363.097 57.6321 363.006 57.1705 363.006 56.6136V52.4545H364.012V56.5455C364.012 57.0227 364.146 57.4034 364.413 57.6875C364.683 57.9716 365.026 58.1136 365.444 58.1136C365.694 58.1136 365.948 58.0497 366.207 57.9219C366.468 57.794 366.687 57.598 366.863 57.3338C367.042 57.0696 367.131 56.733 367.131 56.3239ZM374.615 53.9205L373.712 54.1761C373.655 54.0256 373.571 53.8793 373.461 53.7372C373.353 53.5923 373.205 53.473 373.017 53.3793C372.83 53.2855 372.59 53.2386 372.297 53.2386C371.897 53.2386 371.563 53.331 371.296 53.5156C371.032 53.6974 370.9 53.929 370.9 54.2102C370.9 54.4602 370.99 54.6577 371.172 54.8026C371.354 54.9474 371.638 55.0682 372.025 55.1648L372.996 55.4034C373.581 55.5455 374.017 55.7628 374.304 56.0554C374.591 56.3452 374.735 56.7187 374.735 57.1761C374.735 57.5511 374.627 57.8864 374.411 58.1818C374.198 58.4773 373.9 58.7102 373.516 58.8807C373.132 59.0511 372.686 59.1364 372.178 59.1364C371.51 59.1364 370.958 58.9915 370.52 58.7017C370.083 58.4119 369.806 57.9886 369.689 57.4318L370.644 57.1932C370.735 57.5455 370.907 57.8097 371.159 57.9858C371.415 58.1619 371.749 58.25 372.161 58.25C372.63 58.25 373.002 58.1506 373.277 57.9517C373.556 57.75 373.695 57.5085 373.695 57.2273C373.695 57 373.615 56.8097 373.456 56.6562C373.297 56.5 373.053 56.3835 372.723 56.3068L371.632 56.0511C371.033 55.9091 370.593 55.6889 370.311 55.3906C370.033 55.0895 369.894 54.7131 369.894 54.2614C369.894 53.892 369.998 53.5653 370.205 53.2812C370.415 52.9972 370.701 52.7741 371.061 52.6122C371.425 52.4503 371.837 52.3693 372.297 52.3693C372.945 52.3693 373.453 52.5114 373.823 52.7955C374.195 53.0795 374.459 53.4545 374.615 53.9205ZM376.249 59V52.4545H377.254V59H376.249ZM376.76 51.3636C376.564 51.3636 376.395 51.2969 376.253 51.1634C376.114 51.0298 376.044 50.8693 376.044 50.6818C376.044 50.4943 376.114 50.3338 376.253 50.2003C376.395 50.0668 376.564 50 376.76 50C376.956 50 377.124 50.0668 377.263 50.2003C377.405 50.3338 377.476 50.4943 377.476 50.6818C377.476 50.8693 377.405 51.0298 377.263 51.1634C377.124 51.2969 376.956 51.3636 376.76 51.3636ZM380.102 55.0625V59H379.096V52.4545H380.068V53.4773H380.153C380.306 53.1449 380.539 52.8778 380.852 52.6761C381.164 52.4716 381.568 52.3693 382.062 52.3693C382.505 52.3693 382.893 52.4602 383.225 52.642C383.558 52.821 383.816 53.0938 384.001 53.4602C384.186 53.8239 384.278 54.2841 384.278 54.8409V59H383.272V54.9091C383.272 54.3949 383.139 53.9943 382.872 53.7074C382.605 53.4176 382.238 53.2727 381.772 53.2727C381.451 53.2727 381.164 53.3423 380.912 53.4815C380.662 53.6207 380.464 53.8239 380.319 54.0909C380.174 54.358 380.102 54.6818 380.102 55.0625ZM388.86 59.1364C388.229 59.1364 387.685 58.9972 387.228 58.7188C386.773 58.4375 386.423 58.0455 386.175 57.5426C385.931 57.0369 385.809 56.4489 385.809 55.7784C385.809 55.108 385.931 54.517 386.175 54.0057C386.423 53.4915 386.766 53.0909 387.207 52.804C387.65 52.5142 388.167 52.3693 388.758 52.3693C389.099 52.3693 389.435 52.4261 389.768 52.5398C390.1 52.6534 390.403 52.8381 390.675 53.0938C390.948 53.3466 391.165 53.6818 391.327 54.0994C391.489 54.517 391.57 55.0312 391.57 55.642V56.0682H386.525V55.1989H390.548C390.548 54.8295 390.474 54.5 390.326 54.2102C390.181 53.9205 389.974 53.6918 389.704 53.5241C389.437 53.3565 389.121 53.2727 388.758 53.2727C388.357 53.2727 388.011 53.3722 387.718 53.571C387.428 53.767 387.205 54.0227 387.049 54.3381C386.893 54.6534 386.815 54.9915 386.815 55.3523V55.9318C386.815 56.4261 386.9 56.8452 387.07 57.1889C387.244 57.5298 387.484 57.7898 387.79 57.9688C388.097 58.1449 388.454 58.233 388.86 58.233C389.124 58.233 389.363 58.196 389.576 58.1222C389.792 58.0455 389.978 57.9318 390.134 57.7813C390.29 57.6278 390.411 57.4375 390.496 57.2102L391.468 57.483C391.366 57.8125 391.194 58.1023 390.952 58.3523C390.711 58.5994 390.413 58.7926 390.058 58.9318C389.702 59.0682 389.303 59.1364 388.86 59.1364ZM397.737 53.9205L396.833 54.1761C396.776 54.0256 396.692 53.8793 396.582 53.7372C396.474 53.5923 396.326 53.473 396.138 53.3793C395.951 53.2855 395.711 53.2386 395.418 53.2386C395.018 53.2386 394.684 53.331 394.417 53.5156C394.153 53.6974 394.021 53.929 394.021 54.2102C394.021 54.4602 394.112 54.6577 394.293 54.8026C394.475 54.9474 394.759 55.0682 395.146 55.1648L396.117 55.4034C396.702 55.5455 397.138 55.7628 397.425 56.0554C397.712 56.3452 397.856 56.7187 397.856 57.1761C397.856 57.5511 397.748 57.8864 397.532 58.1818C397.319 58.4773 397.021 58.7102 396.637 58.8807C396.254 59.0511 395.808 59.1364 395.299 59.1364C394.631 59.1364 394.079 58.9915 393.641 58.7017C393.204 58.4119 392.927 57.9886 392.81 57.4318L393.765 57.1932C393.856 57.5455 394.028 57.8097 394.281 57.9858C394.536 58.1619 394.87 58.25 395.282 58.25C395.751 58.25 396.123 58.1506 396.398 57.9517C396.677 57.75 396.816 57.5085 396.816 57.2273C396.816 57 396.737 56.8097 396.577 56.6563C396.418 56.5 396.174 56.3835 395.844 56.3068L394.754 56.0511C394.154 55.9091 393.714 55.6889 393.433 55.3906C393.154 55.0895 393.015 54.7131 393.015 54.2614C393.015 53.892 393.119 53.5653 393.326 53.2813C393.536 52.9972 393.822 52.7741 394.183 52.6122C394.546 52.4503 394.958 52.3693 395.418 52.3693C396.066 52.3693 396.575 52.5114 396.944 52.7955C397.316 53.0795 397.58 53.4545 397.737 53.9205ZM404.006 53.9205L403.103 54.1761C403.046 54.0256 402.962 53.8793 402.851 53.7372C402.743 53.5923 402.596 53.473 402.408 53.3793C402.221 53.2855 401.98 53.2386 401.688 53.2386C401.287 53.2386 400.953 53.331 400.686 53.5156C400.422 53.6974 400.29 53.929 400.29 54.2102C400.29 54.4602 400.381 54.6577 400.563 54.8026C400.745 54.9474 401.029 55.0682 401.415 55.1648L402.387 55.4034C402.972 55.5455 403.408 55.7628 403.695 56.0554C403.982 56.3452 404.125 56.7187 404.125 57.1761C404.125 57.5511 404.017 57.8864 403.801 58.1818C403.588 58.4773 403.29 58.7102 402.907 58.8807C402.523 59.0511 402.077 59.1364 401.569 59.1364C400.901 59.1364 400.348 58.9915 399.911 58.7017C399.473 58.4119 399.196 57.9886 399.08 57.4318L400.034 57.1932C400.125 57.5455 400.297 57.8097 400.55 57.9858C400.806 58.1619 401.14 58.25 401.551 58.25C402.02 58.25 402.392 58.1506 402.668 57.9517C402.946 57.75 403.086 57.5085 403.086 57.2273C403.086 57 403.006 56.8097 402.847 56.6563C402.688 56.5 402.444 56.3835 402.114 56.3068L401.023 56.0511C400.424 55.9091 399.983 55.6889 399.702 55.3906C399.424 55.0895 399.284 54.7131 399.284 54.2614C399.284 53.892 399.388 53.5653 399.596 53.2813C399.806 52.9972 400.091 52.7741 400.452 52.6122C400.816 52.4503 401.228 52.3693 401.688 52.3693C402.336 52.3693 402.844 52.5114 403.213 52.7955C403.586 53.0795 403.85 53.4545 404.006 53.9205ZM351.311 76.4545V67.4545H352.283V68.4943H352.402C352.476 68.3807 352.578 68.2358 352.709 68.0597C352.842 67.8807 353.033 67.7216 353.28 67.5824C353.53 67.4403 353.868 67.3693 354.294 67.3693C354.845 67.3693 355.331 67.5071 355.751 67.7827C356.172 68.0582 356.5 68.4489 356.736 68.9545C356.972 69.4602 357.089 70.0568 357.089 70.7443C357.089 71.4375 356.972 72.0384 356.736 72.5469C356.5 73.0526 356.173 73.4446 355.756 73.723C355.338 73.9986 354.857 74.1364 354.311 74.1364C353.891 74.1364 353.554 74.0668 353.301 73.9276C353.048 73.7855 352.854 73.625 352.717 73.446C352.581 73.2642 352.476 73.1136 352.402 72.9943H352.317V76.4545H351.311ZM352.3 70.7273C352.3 71.2216 352.372 71.6577 352.517 72.0355C352.662 72.4105 352.874 72.7045 353.152 72.9176C353.43 73.1278 353.771 73.233 354.175 73.233C354.595 73.233 354.946 73.1222 355.227 72.9006C355.511 72.6761 355.724 72.375 355.866 71.9972C356.011 71.6165 356.084 71.1932 356.084 70.7273C356.084 70.267 356.013 69.8523 355.871 69.483C355.732 69.1108 355.52 68.8168 355.236 68.6009C354.955 68.3821 354.601 68.2727 354.175 68.2727C353.766 68.2727 353.422 68.3764 353.143 68.5838C352.865 68.7884 352.655 69.0753 352.513 69.4446C352.371 69.8111 352.3 70.2386 352.3 70.7273ZM358.624 74V67.4545H359.595V68.4432H359.663C359.783 68.1193 359.999 67.8565 360.311 67.6548C360.624 67.4531 360.976 67.3523 361.368 67.3523C361.442 67.3523 361.534 67.3537 361.645 67.3565C361.756 67.3594 361.839 67.3636 361.896 67.3693V68.392C361.862 68.3835 361.784 68.3707 361.662 68.3537C361.543 68.3338 361.416 68.3239 361.283 68.3239C360.964 68.3239 360.68 68.3906 360.43 68.5241C360.183 68.6548 359.987 68.8366 359.842 69.0696C359.7 69.2997 359.629 69.5625 359.629 69.858V74H358.624ZM365.548 74.1364C364.957 74.1364 364.439 73.9957 363.993 73.7145C363.55 73.4332 363.203 73.0398 362.953 72.5341C362.706 72.0284 362.582 71.4375 362.582 70.7614C362.582 70.0795 362.706 69.4844 362.953 68.9759C363.203 68.4673 363.55 68.0724 363.993 67.7912C364.439 67.5099 364.957 67.3693 365.548 67.3693C366.139 67.3693 366.656 67.5099 367.099 67.7912C367.545 68.0724 367.892 68.4673 368.139 68.9759C368.389 69.4844 368.514 70.0795 368.514 70.7614C368.514 71.4375 368.389 72.0284 368.139 72.5341C367.892 73.0398 367.545 73.4332 367.099 73.7145C366.656 73.9957 366.139 74.1364 365.548 74.1364ZM365.548 73.233C365.997 73.233 366.366 73.1179 366.656 72.8878C366.946 72.6577 367.161 72.3551 367.3 71.9801C367.439 71.6051 367.509 71.1989 367.509 70.7614C367.509 70.3239 367.439 69.9162 367.3 69.5384C367.161 69.1605 366.946 68.8551 366.656 68.6222C366.366 68.3892 365.997 68.2727 365.548 68.2727C365.099 68.2727 364.73 68.3892 364.44 68.6222C364.151 68.8551 363.936 69.1605 363.797 69.5384C363.658 69.9162 363.588 70.3239 363.588 70.7614C363.588 71.1989 363.658 71.6051 363.797 71.9801C363.936 72.3551 364.151 72.6577 364.44 72.8878C364.73 73.1179 365.099 73.233 365.548 73.233ZM372.708 74.1364C372.095 74.1364 371.566 73.9915 371.123 73.7017C370.68 73.4119 370.339 73.0128 370.1 72.5043C369.862 71.9957 369.743 71.4148 369.743 70.7614C369.743 70.0966 369.865 69.5099 370.109 69.0014C370.356 68.4901 370.7 68.0909 371.14 67.804C371.583 67.5142 372.1 67.3693 372.691 67.3693C373.152 67.3693 373.566 67.4545 373.936 67.625C374.305 67.7955 374.608 68.0341 374.843 68.3409C375.079 68.6477 375.225 69.0057 375.282 69.4148H374.277C374.2 69.1165 374.029 68.8523 373.765 68.6222C373.504 68.3892 373.152 68.2727 372.708 68.2727C372.316 68.2727 371.973 68.375 371.677 68.5795C371.385 68.7812 371.156 69.0668 370.991 69.4361C370.829 69.8026 370.748 70.233 370.748 70.7273C370.748 71.233 370.828 71.6733 370.987 72.0483C371.149 72.4233 371.376 72.7145 371.669 72.9219C371.964 73.1293 372.311 73.233 372.708 73.233C372.97 73.233 373.207 73.1875 373.42 73.0966C373.633 73.0057 373.814 72.875 373.961 72.7045C374.109 72.5341 374.214 72.3295 374.277 72.0909H375.282C375.225 72.4773 375.085 72.8253 374.86 73.1349C374.639 73.4418 374.345 73.6861 373.978 73.8679C373.615 74.0469 373.191 74.1364 372.708 74.1364ZM379.497 74.1364C378.866 74.1364 378.322 73.9972 377.865 73.7188C377.41 73.4375 377.059 73.0455 376.812 72.5426C376.568 72.0369 376.446 71.4489 376.446 70.7784C376.446 70.108 376.568 69.517 376.812 69.0057C377.059 68.4915 377.403 68.0909 377.843 67.804C378.287 67.5142 378.804 67.3693 379.395 67.3693C379.735 67.3693 380.072 67.4261 380.404 67.5398C380.737 67.6534 381.039 67.8381 381.312 68.0938C381.585 68.3466 381.802 68.6818 381.964 69.0994C382.126 69.517 382.207 70.0312 382.207 70.642V71.0682H377.162V70.1989H381.184C381.184 69.8295 381.11 69.5 380.963 69.2102C380.818 68.9205 380.61 68.6918 380.341 68.5241C380.074 68.3565 379.758 68.2727 379.395 68.2727C378.994 68.2727 378.647 68.3722 378.355 68.571C378.065 68.767 377.842 69.0227 377.686 69.3381C377.529 69.6534 377.451 69.9915 377.451 70.3523V70.9318C377.451 71.4261 377.537 71.8452 377.707 72.1889C377.88 72.5298 378.12 72.7898 378.427 72.9688C378.734 73.1449 379.091 73.233 379.497 73.233C379.761 73.233 380 73.196 380.213 73.1222C380.429 73.0455 380.615 72.9318 380.771 72.7812C380.927 72.6278 381.048 72.4375 381.133 72.2102L382.105 72.483C382.002 72.8125 381.831 73.1023 381.589 73.3523C381.348 73.5994 381.049 73.7926 380.694 73.9318C380.339 74.0682 379.94 74.1364 379.497 74.1364ZM388.373 68.9205L387.47 69.1761C387.413 69.0256 387.329 68.8793 387.218 68.7372C387.11 68.5923 386.963 68.473 386.775 68.3793C386.588 68.2855 386.348 68.2386 386.055 68.2386C385.654 68.2386 385.321 68.331 385.054 68.5156C384.789 68.6974 384.657 68.929 384.657 69.2102C384.657 69.4602 384.748 69.6577 384.93 69.8026C385.112 69.9474 385.396 70.0682 385.782 70.1648L386.754 70.4034C387.339 70.5455 387.775 70.7628 388.062 71.0554C388.349 71.3452 388.493 71.7187 388.493 72.1761C388.493 72.5511 388.385 72.8864 388.169 73.1818C387.956 73.4773 387.657 73.7102 387.274 73.8807C386.89 74.0511 386.444 74.1364 385.936 74.1364C385.268 74.1364 384.716 73.9915 384.278 73.7017C383.841 73.4119 383.564 72.9886 383.447 72.4318L384.402 72.1932C384.493 72.5455 384.664 72.8097 384.917 72.9858C385.173 73.1619 385.507 73.25 385.919 73.25C386.387 73.25 386.76 73.1506 387.035 72.9517C387.314 72.75 387.453 72.5085 387.453 72.2273C387.453 72 387.373 71.8097 387.214 71.6562C387.055 71.5 386.811 71.3835 386.481 71.3068L385.39 71.0511C384.791 70.9091 384.35 70.6889 384.069 70.3906C383.791 70.0895 383.652 69.7131 383.652 69.2614C383.652 68.892 383.755 68.5653 383.963 68.2812C384.173 67.9972 384.458 67.7741 384.819 67.6122C385.183 67.4503 385.595 67.3693 386.055 67.3693C386.703 67.3693 387.211 67.5114 387.581 67.7955C387.953 68.0795 388.217 68.4545 388.373 68.9205ZM394.643 68.9205L393.739 69.1761C393.683 69.0256 393.599 68.8793 393.488 68.7372C393.38 68.5923 393.232 68.473 393.045 68.3793C392.857 68.2855 392.617 68.2386 392.325 68.2386C391.924 68.2386 391.59 68.331 391.323 68.5156C391.059 68.6974 390.927 68.929 390.927 69.2102C390.927 69.4602 391.018 69.6577 391.2 69.8026C391.381 69.9474 391.665 70.0682 392.052 70.1648L393.023 70.4034C393.609 70.5455 394.045 70.7628 394.332 71.0554C394.619 71.3452 394.762 71.7187 394.762 72.1761C394.762 72.5511 394.654 72.8864 394.438 73.1818C394.225 73.4773 393.927 73.7102 393.543 73.8807C393.16 74.0511 392.714 74.1364 392.205 74.1364C391.538 74.1364 390.985 73.9915 390.548 73.7017C390.11 73.4119 389.833 72.9886 389.717 72.4318L390.671 72.1932C390.762 72.5455 390.934 72.8097 391.187 72.9858C391.442 73.1619 391.776 73.25 392.188 73.25C392.657 73.25 393.029 73.1506 393.305 72.9517C393.583 72.75 393.722 72.5085 393.722 72.2273C393.722 72 393.643 71.8097 393.484 71.6562C393.325 71.5 393.08 71.3835 392.751 71.3068L391.66 71.0511C391.06 70.9091 390.62 70.6889 390.339 70.3906C390.06 70.0895 389.921 69.7131 389.921 69.2614C389.921 68.892 390.025 68.5653 390.232 68.2812C390.442 67.9972 390.728 67.7741 391.089 67.6122C391.452 67.4503 391.864 67.3693 392.325 67.3693C392.972 67.3693 393.481 67.5114 393.85 67.7955C394.222 68.0795 394.487 68.4545 394.643 68.9205ZM399.02 74.1364C398.39 74.1364 397.846 73.9972 397.388 73.7188C396.934 73.4375 396.583 73.0455 396.336 72.5426C396.091 72.0369 395.969 71.4489 395.969 70.7784C395.969 70.108 396.091 69.517 396.336 69.0057C396.583 68.4915 396.926 68.0909 397.367 67.804C397.81 67.5142 398.327 67.3693 398.918 67.3693C399.259 67.3693 399.596 67.4261 399.928 67.5398C400.26 67.6534 400.563 67.8381 400.836 68.0938C401.108 68.3466 401.326 68.6818 401.488 69.0994C401.65 69.517 401.73 70.0312 401.73 70.642V71.0682H396.685V70.1989H400.708C400.708 69.8295 400.634 69.5 400.486 69.2102C400.341 68.9205 400.134 68.6918 399.864 68.5241C399.597 68.3565 399.282 68.2727 398.918 68.2727C398.517 68.2727 398.171 68.3722 397.878 68.571C397.588 68.767 397.365 69.0227 397.209 69.3381C397.053 69.6534 396.975 69.9915 396.975 70.3523V70.9318C396.975 71.4261 397.06 71.8452 397.23 72.1889C397.404 72.5298 397.644 72.7898 397.951 72.9688C398.257 73.1449 398.614 73.233 399.02 73.233C399.284 73.233 399.523 73.196 399.736 73.1222C399.952 73.0455 400.138 72.9318 400.294 72.7812C400.451 72.6278 400.571 72.4375 400.657 72.2102L401.628 72.483C401.526 72.8125 401.354 73.1023 401.113 73.3523C400.871 73.5994 400.573 73.7926 400.218 73.9318C399.863 74.0682 399.463 74.1364 399.02 74.1364ZM407.897 68.9205L406.993 69.1761C406.936 69.0256 406.853 68.8793 406.742 68.7372C406.634 68.5923 406.486 68.473 406.299 68.3793C406.111 68.2855 405.871 68.2386 405.578 68.2386C405.178 68.2386 404.844 68.331 404.577 68.5156C404.313 68.6974 404.181 68.929 404.181 69.2102C404.181 69.4602 404.272 69.6577 404.453 69.8026C404.635 69.9474 404.919 70.0682 405.306 70.1648L406.277 70.4034C406.863 70.5455 407.299 70.7628 407.586 71.0554C407.873 71.3452 408.016 71.7187 408.016 72.1761C408.016 72.5511 407.908 72.8864 407.692 73.1818C407.479 73.4773 407.181 73.7102 406.797 73.8807C406.414 74.0511 405.968 74.1364 405.459 74.1364C404.792 74.1364 404.239 73.9915 403.801 73.7017C403.364 73.4119 403.087 72.9886 402.971 72.4318L403.925 72.1932C404.016 72.5455 404.188 72.8097 404.441 72.9858C404.696 73.1619 405.03 73.25 405.442 73.25C405.911 73.25 406.283 73.1506 406.559 72.9517C406.837 72.75 406.976 72.5085 406.976 72.2273C406.976 72 406.897 71.8097 406.738 71.6563C406.578 71.5 406.334 71.3835 406.005 71.3068L404.914 71.0511C404.314 70.9091 403.874 70.6889 403.593 70.3906C403.314 70.0895 403.175 69.7131 403.175 69.2614C403.175 68.892 403.279 68.5653 403.486 68.2812C403.696 67.9972 403.982 67.7741 404.343 67.6122C404.706 67.4503 405.118 67.3693 405.578 67.3693C406.226 67.3693 406.735 67.5114 407.104 67.7955C407.476 68.0795 407.74 68.4545 407.897 68.9205Z" fill="white"/>
<path d="M427.83 193.455C427.778 193.023 427.571 192.688 427.207 192.449C426.844 192.21 426.398 192.091 425.869 192.091C425.483 192.091 425.145 192.153 424.855 192.278C424.568 192.403 424.344 192.575 424.182 192.794C424.023 193.013 423.943 193.261 423.943 193.54C423.943 193.773 423.999 193.973 424.109 194.141C424.223 194.305 424.368 194.443 424.544 194.554C424.72 194.662 424.905 194.751 425.098 194.822C425.291 194.891 425.469 194.946 425.631 194.989L426.517 195.227C426.744 195.287 426.997 195.369 427.276 195.474C427.557 195.58 427.825 195.723 428.081 195.905C428.339 196.084 428.553 196.314 428.72 196.595C428.888 196.876 428.972 197.222 428.972 197.631C428.972 198.102 428.848 198.528 428.601 198.909C428.357 199.29 427.999 199.592 427.527 199.817C427.058 200.041 426.489 200.153 425.818 200.153C425.193 200.153 424.652 200.053 424.195 199.851C423.74 199.649 423.382 199.368 423.121 199.007C422.862 198.646 422.716 198.227 422.682 197.75H423.773C423.801 198.08 423.912 198.352 424.105 198.568C424.301 198.781 424.548 198.94 424.847 199.045C425.148 199.148 425.472 199.199 425.818 199.199C426.222 199.199 426.584 199.134 426.905 199.003C427.226 198.869 427.48 198.685 427.668 198.449C427.855 198.21 427.949 197.932 427.949 197.614C427.949 197.324 427.868 197.088 427.706 196.906C427.544 196.724 427.331 196.577 427.067 196.463C426.803 196.349 426.517 196.25 426.21 196.165L425.136 195.858C424.455 195.662 423.915 195.382 423.517 195.018C423.119 194.655 422.92 194.179 422.92 193.591C422.92 193.102 423.053 192.676 423.317 192.312C423.584 191.946 423.942 191.662 424.391 191.46C424.842 191.256 425.347 191.153 425.903 191.153C426.466 191.153 426.966 191.254 427.403 191.456C427.841 191.655 428.188 191.928 428.443 192.274C428.702 192.621 428.838 193.014 428.852 193.455H427.83ZM433.419 193.455V194.307H430.027V193.455H433.419ZM431.016 191.886H432.022V198.125C432.022 198.409 432.063 198.622 432.145 198.764C432.23 198.903 432.338 198.997 432.469 199.045C432.603 199.091 432.743 199.114 432.891 199.114C433.002 199.114 433.093 199.108 433.164 199.097C433.235 199.082 433.292 199.071 433.334 199.062L433.539 199.966C433.471 199.991 433.375 200.017 433.253 200.043C433.131 200.071 432.976 200.085 432.789 200.085C432.505 200.085 432.226 200.024 431.953 199.902C431.684 199.78 431.459 199.594 431.28 199.344C431.104 199.094 431.016 198.778 431.016 198.398V191.886ZM434.932 200V193.455H435.904V194.443H435.972C436.091 194.119 436.307 193.857 436.62 193.655C436.932 193.453 437.284 193.352 437.676 193.352C437.75 193.352 437.843 193.354 437.953 193.357C438.064 193.359 438.148 193.364 438.205 193.369V194.392C438.171 194.384 438.093 194.371 437.971 194.354C437.851 194.334 437.725 194.324 437.591 194.324C437.273 194.324 436.989 194.391 436.739 194.524C436.492 194.655 436.296 194.837 436.151 195.07C436.009 195.3 435.938 195.562 435.938 195.858V200H434.932ZM441.323 200.153C440.908 200.153 440.532 200.075 440.194 199.919C439.856 199.76 439.587 199.531 439.388 199.233C439.19 198.932 439.09 198.568 439.09 198.142C439.09 197.767 439.164 197.463 439.312 197.23C439.46 196.994 439.657 196.81 439.904 196.676C440.151 196.543 440.424 196.443 440.722 196.378C441.023 196.31 441.326 196.256 441.63 196.216C442.028 196.165 442.35 196.126 442.597 196.101C442.847 196.072 443.029 196.026 443.143 195.96C443.259 195.895 443.317 195.781 443.317 195.619V195.585C443.317 195.165 443.202 194.838 442.972 194.605C442.745 194.372 442.4 194.256 441.937 194.256C441.457 194.256 441.08 194.361 440.808 194.571C440.535 194.781 440.343 195.006 440.232 195.244L439.278 194.903C439.448 194.506 439.675 194.196 439.96 193.974C440.246 193.75 440.559 193.594 440.897 193.506C441.238 193.415 441.573 193.369 441.903 193.369C442.113 193.369 442.354 193.395 442.627 193.446C442.903 193.494 443.168 193.595 443.424 193.749C443.683 193.902 443.897 194.134 444.067 194.443C444.238 194.753 444.323 195.168 444.323 195.688V200H443.317V199.114H443.266C443.198 199.256 443.085 199.408 442.925 199.57C442.766 199.732 442.555 199.869 442.29 199.983C442.026 200.097 441.704 200.153 441.323 200.153ZM441.477 199.25C441.874 199.25 442.21 199.172 442.482 199.016C442.758 198.859 442.965 198.658 443.104 198.411C443.246 198.163 443.317 197.903 443.317 197.631V196.71C443.275 196.761 443.181 196.808 443.036 196.851C442.894 196.891 442.729 196.926 442.542 196.957C442.357 196.986 442.177 197.011 442.001 197.034C441.827 197.054 441.687 197.071 441.579 197.085C441.317 197.119 441.073 197.175 440.846 197.251C440.621 197.325 440.44 197.437 440.3 197.588C440.164 197.736 440.096 197.937 440.096 198.193C440.096 198.543 440.225 198.807 440.484 198.986C440.745 199.162 441.076 199.25 441.477 199.25ZM449.005 193.455V194.307H445.613V193.455H449.005ZM446.602 191.886H447.608V198.125C447.608 198.409 447.649 198.622 447.731 198.764C447.816 198.903 447.924 198.997 448.055 199.045C448.189 199.091 448.329 199.114 448.477 199.114C448.588 199.114 448.679 199.108 448.75 199.097C448.821 199.082 448.877 199.071 448.92 199.062L449.125 199.966C449.056 199.991 448.961 200.017 448.839 200.043C448.717 200.071 448.562 200.085 448.375 200.085C448.091 200.085 447.812 200.024 447.539 199.902C447.27 199.78 447.045 199.594 446.866 199.344C446.69 199.094 446.602 198.778 446.602 198.398V191.886ZM453.192 200.136C452.561 200.136 452.017 199.997 451.56 199.719C451.105 199.438 450.755 199.045 450.507 198.543C450.263 198.037 450.141 197.449 450.141 196.778C450.141 196.108 450.263 195.517 450.507 195.006C450.755 194.491 451.098 194.091 451.539 193.804C451.982 193.514 452.499 193.369 453.09 193.369C453.431 193.369 453.767 193.426 454.1 193.54C454.432 193.653 454.735 193.838 455.007 194.094C455.28 194.347 455.498 194.682 455.659 195.099C455.821 195.517 455.902 196.031 455.902 196.642V197.068H450.857V196.199H454.88C454.88 195.83 454.806 195.5 454.658 195.21C454.513 194.92 454.306 194.692 454.036 194.524C453.769 194.357 453.453 194.273 453.09 194.273C452.689 194.273 452.343 194.372 452.05 194.571C451.76 194.767 451.537 195.023 451.381 195.338C451.225 195.653 451.147 195.991 451.147 196.352V196.932C451.147 197.426 451.232 197.845 451.402 198.189C451.576 198.53 451.816 198.79 452.123 198.969C452.429 199.145 452.786 199.233 453.192 199.233C453.456 199.233 453.695 199.196 453.908 199.122C454.124 199.045 454.31 198.932 454.466 198.781C454.623 198.628 454.743 198.437 454.828 198.21L455.8 198.483C455.698 198.812 455.526 199.102 455.284 199.352C455.043 199.599 454.745 199.793 454.39 199.932C454.034 200.068 453.635 200.136 453.192 200.136ZM460.074 202.591C459.588 202.591 459.171 202.528 458.821 202.403C458.472 202.281 458.181 202.119 457.948 201.918C457.718 201.719 457.534 201.506 457.398 201.278L458.199 200.716C458.29 200.835 458.405 200.972 458.544 201.125C458.684 201.281 458.874 201.416 459.115 201.53C459.36 201.646 459.679 201.705 460.074 201.705C460.603 201.705 461.039 201.577 461.382 201.321C461.726 201.065 461.898 200.665 461.898 200.119V198.79H461.813C461.739 198.909 461.634 199.057 461.498 199.233C461.364 199.406 461.171 199.561 460.918 199.697C460.668 199.831 460.33 199.898 459.904 199.898C459.375 199.898 458.901 199.773 458.48 199.523C458.063 199.273 457.732 198.909 457.488 198.432C457.246 197.955 457.125 197.375 457.125 196.693C457.125 196.023 457.243 195.439 457.479 194.942C457.715 194.442 458.043 194.055 458.463 193.783C458.884 193.507 459.37 193.369 459.921 193.369C460.347 193.369 460.685 193.44 460.935 193.582C461.188 193.722 461.381 193.881 461.515 194.06C461.651 194.236 461.756 194.381 461.83 194.494H461.932V193.455H462.904V200.188C462.904 200.75 462.776 201.207 462.52 201.56C462.267 201.915 461.926 202.175 461.498 202.339C461.071 202.507 460.597 202.591 460.074 202.591ZM460.04 198.994C460.444 198.994 460.784 198.902 461.063 198.717C461.341 198.533 461.553 198.267 461.698 197.92C461.843 197.574 461.915 197.159 461.915 196.676C461.915 196.205 461.844 195.788 461.702 195.428C461.56 195.067 461.35 194.784 461.071 194.58C460.793 194.375 460.449 194.273 460.04 194.273C459.614 194.273 459.259 194.381 458.975 194.597C458.694 194.812 458.482 195.102 458.34 195.466C458.201 195.83 458.131 196.233 458.131 196.676C458.131 197.131 458.202 197.533 458.344 197.882C458.489 198.229 458.702 198.501 458.983 198.7C459.267 198.896 459.62 198.994 460.04 198.994ZM465.392 202.455C465.222 202.455 465.07 202.44 464.936 202.412C464.803 202.386 464.711 202.361 464.659 202.335L464.915 201.449C465.159 201.511 465.375 201.534 465.563 201.517C465.75 201.5 465.917 201.416 466.061 201.266C466.209 201.118 466.344 200.878 466.466 200.545L466.654 200.034L464.233 193.455H465.324L467.131 198.67H467.199L469.006 193.455H470.097L467.319 200.955C467.194 201.293 467.039 201.572 466.854 201.794C466.669 202.018 466.455 202.185 466.211 202.293C465.969 202.401 465.696 202.455 465.392 202.455Z" fill="white"/>
<path d="M214.023 328C213.929 327.713 213.805 327.456 213.652 327.229C213.501 326.999 213.321 326.803 213.111 326.641C212.903 326.479 212.668 326.355 212.403 326.27C212.139 326.185 211.849 326.142 211.534 326.142C211.017 326.142 210.547 326.276 210.124 326.543C209.7 326.81 209.364 327.203 209.114 327.723C208.864 328.243 208.739 328.881 208.739 329.636C208.739 330.392 208.865 331.03 209.118 331.55C209.371 332.07 209.713 332.463 210.145 332.73C210.577 332.997 211.063 333.131 211.602 333.131C212.102 333.131 212.543 333.024 212.923 332.811C213.307 332.595 213.605 332.291 213.818 331.899C214.034 331.504 214.142 331.04 214.142 330.506L214.466 330.574H211.841V329.636H215.165V330.574C215.165 331.293 215.011 331.918 214.705 332.449C214.401 332.98 213.98 333.392 213.443 333.685C212.909 333.974 212.295 334.119 211.602 334.119C210.83 334.119 210.151 333.938 209.565 333.574C208.983 333.21 208.528 332.693 208.202 332.023C207.878 331.352 207.716 330.557 207.716 329.636C207.716 328.946 207.808 328.325 207.993 327.774C208.18 327.22 208.445 326.749 208.786 326.359C209.126 325.97 209.53 325.672 209.996 325.464C210.462 325.257 210.974 325.153 211.534 325.153C211.994 325.153 212.423 325.223 212.821 325.362C213.222 325.499 213.578 325.693 213.891 325.946C214.206 326.196 214.469 326.496 214.679 326.845C214.889 327.192 215.034 327.577 215.114 328H214.023ZM219.498 334.136C218.907 334.136 218.388 333.996 217.942 333.714C217.499 333.433 217.152 333.04 216.902 332.534C216.655 332.028 216.532 331.437 216.532 330.761C216.532 330.08 216.655 329.484 216.902 328.976C217.152 328.467 217.499 328.072 217.942 327.791C218.388 327.51 218.907 327.369 219.498 327.369C220.088 327.369 220.605 327.51 221.049 327.791C221.495 328.072 221.841 328.467 222.088 328.976C222.338 329.484 222.463 330.08 222.463 330.761C222.463 331.437 222.338 332.028 222.088 332.534C221.841 333.04 221.495 333.433 221.049 333.714C220.605 333.996 220.088 334.136 219.498 334.136ZM219.498 333.233C219.946 333.233 220.316 333.118 220.605 332.888C220.895 332.658 221.11 332.355 221.249 331.98C221.388 331.605 221.458 331.199 221.458 330.761C221.458 330.324 221.388 329.916 221.249 329.538C221.11 329.161 220.895 328.855 220.605 328.622C220.316 328.389 219.946 328.273 219.498 328.273C219.049 328.273 218.679 328.389 218.39 328.622C218.1 328.855 217.885 329.161 217.746 329.538C217.607 329.916 217.537 330.324 217.537 330.761C217.537 331.199 217.607 331.605 217.746 331.98C217.885 332.355 218.1 332.658 218.39 332.888C218.679 333.118 219.049 333.233 219.498 333.233ZM225.925 334.153C225.51 334.153 225.134 334.075 224.795 333.919C224.457 333.76 224.189 333.531 223.99 333.233C223.791 332.932 223.692 332.568 223.692 332.142C223.692 331.767 223.766 331.463 223.913 331.23C224.061 330.994 224.259 330.81 224.506 330.676C224.753 330.543 225.026 330.443 225.324 330.378C225.625 330.31 225.928 330.256 226.232 330.216C226.629 330.165 226.952 330.126 227.199 330.101C227.449 330.072 227.631 330.026 227.744 329.96C227.861 329.895 227.919 329.781 227.919 329.619V329.585C227.919 329.165 227.804 328.838 227.574 328.605C227.347 328.372 227.001 328.256 226.538 328.256C226.058 328.256 225.682 328.361 225.409 328.571C225.136 328.781 224.945 329.006 224.834 329.244L223.879 328.903C224.05 328.506 224.277 328.196 224.561 327.974C224.848 327.75 225.161 327.594 225.499 327.506C225.839 327.415 226.175 327.369 226.504 327.369C226.714 327.369 226.956 327.395 227.229 327.446C227.504 327.494 227.77 327.595 228.026 327.749C228.284 327.902 228.499 328.134 228.669 328.443C228.839 328.753 228.925 329.168 228.925 329.688V334H227.919V333.114H227.868C227.8 333.256 227.686 333.408 227.527 333.57C227.368 333.732 227.156 333.869 226.892 333.983C226.628 334.097 226.305 334.153 225.925 334.153ZM226.078 333.25C226.476 333.25 226.811 333.172 227.084 333.016C227.359 332.859 227.567 332.658 227.706 332.411C227.848 332.163 227.919 331.903 227.919 331.631V330.71C227.876 330.761 227.783 330.808 227.638 330.851C227.496 330.891 227.331 330.926 227.143 330.957C226.959 330.986 226.778 331.011 226.602 331.034C226.429 331.054 226.288 331.071 226.18 331.085C225.919 331.119 225.675 331.175 225.447 331.251C225.223 331.325 225.041 331.437 224.902 331.588C224.766 331.736 224.697 331.937 224.697 332.193C224.697 332.543 224.827 332.807 225.085 332.986C225.347 333.162 225.678 333.25 226.078 333.25ZM231.766 325.273V334H230.76V325.273H231.766ZM238.244 328.92L237.341 329.176C237.284 329.026 237.2 328.879 237.089 328.737C236.982 328.592 236.834 328.473 236.646 328.379C236.459 328.286 236.219 328.239 235.926 328.239C235.526 328.239 235.192 328.331 234.925 328.516C234.661 328.697 234.528 328.929 234.528 329.21C234.528 329.46 234.619 329.658 234.801 329.803C234.983 329.947 235.267 330.068 235.653 330.165L236.625 330.403C237.21 330.545 237.646 330.763 237.933 331.055C238.22 331.345 238.364 331.719 238.364 332.176C238.364 332.551 238.256 332.886 238.04 333.182C237.827 333.477 237.528 333.71 237.145 333.881C236.761 334.051 236.315 334.136 235.807 334.136C235.139 334.136 234.587 333.991 234.149 333.702C233.712 333.412 233.435 332.989 233.318 332.432L234.273 332.193C234.364 332.545 234.536 332.81 234.788 332.986C235.044 333.162 235.378 333.25 235.79 333.25C236.259 333.25 236.631 333.151 236.906 332.952C237.185 332.75 237.324 332.509 237.324 332.227C237.324 332 237.244 331.81 237.085 331.656C236.926 331.5 236.682 331.384 236.352 331.307L235.261 331.051C234.662 330.909 234.222 330.689 233.94 330.391C233.662 330.089 233.523 329.713 233.523 329.261C233.523 328.892 233.626 328.565 233.834 328.281C234.044 327.997 234.33 327.774 234.69 327.612C235.054 327.45 235.466 327.369 235.926 327.369C236.574 327.369 237.082 327.511 237.452 327.795C237.824 328.08 238.088 328.455 238.244 328.92Z" fill="white"/>
<path d="M345.114 324.273V333H344.057V324.273H345.114ZM348.102 329.062V333H347.096V326.455H348.068V327.477H348.153C348.306 327.145 348.539 326.878 348.852 326.676C349.164 326.472 349.568 326.369 350.062 326.369C350.505 326.369 350.893 326.46 351.225 326.642C351.558 326.821 351.816 327.094 352.001 327.46C352.186 327.824 352.278 328.284 352.278 328.841V333H351.272V328.909C351.272 328.395 351.139 327.994 350.872 327.707C350.605 327.418 350.238 327.273 349.772 327.273C349.451 327.273 349.164 327.342 348.912 327.482C348.662 327.621 348.464 327.824 348.319 328.091C348.174 328.358 348.102 328.682 348.102 329.062ZM356.587 333.136C356.042 333.136 355.56 332.999 355.143 332.723C354.725 332.445 354.398 332.053 354.163 331.547C353.927 331.038 353.809 330.438 353.809 329.744C353.809 329.057 353.927 328.46 354.163 327.955C354.398 327.449 354.727 327.058 355.147 326.783C355.567 326.507 356.053 326.369 356.604 326.369C357.031 326.369 357.367 326.44 357.614 326.582C357.864 326.722 358.055 326.881 358.185 327.06C358.319 327.236 358.423 327.381 358.496 327.494H358.582V324.273H359.587V333H358.616V331.994H358.496C358.423 332.114 358.317 332.264 358.181 332.446C358.045 332.625 357.85 332.786 357.597 332.928C357.344 333.067 357.008 333.136 356.587 333.136ZM356.724 332.233C357.127 332.233 357.468 332.128 357.746 331.918C358.025 331.705 358.237 331.411 358.381 331.036C358.526 330.658 358.599 330.222 358.599 329.727C358.599 329.239 358.528 328.811 358.386 328.445C358.244 328.075 358.033 327.788 357.755 327.584C357.477 327.376 357.133 327.273 356.724 327.273C356.298 327.273 355.942 327.382 355.658 327.601C355.377 327.817 355.165 328.111 355.023 328.483C354.884 328.852 354.815 329.267 354.815 329.727C354.815 330.193 354.886 330.616 355.028 330.997C355.173 331.375 355.386 331.676 355.667 331.901C355.951 332.122 356.303 332.233 356.724 332.233ZM361.569 333V326.455H362.575V333H361.569ZM362.08 325.364C361.884 325.364 361.715 325.297 361.573 325.163C361.434 325.03 361.364 324.869 361.364 324.682C361.364 324.494 361.434 324.334 361.573 324.2C361.715 324.067 361.884 324 362.08 324C362.276 324 362.444 324.067 362.583 324.2C362.725 324.334 362.796 324.494 362.796 324.682C362.796 324.869 362.725 325.03 362.583 325.163C362.444 325.297 362.276 325.364 362.08 325.364ZM367.076 333.136C366.462 333.136 365.934 332.991 365.49 332.702C365.047 332.412 364.706 332.013 364.468 331.504C364.229 330.996 364.11 330.415 364.11 329.761C364.11 329.097 364.232 328.51 364.476 328.001C364.723 327.49 365.067 327.091 365.507 326.804C365.951 326.514 366.468 326.369 367.059 326.369C367.519 326.369 367.934 326.455 368.303 326.625C368.672 326.795 368.975 327.034 369.211 327.341C369.446 327.648 369.593 328.006 369.65 328.415H368.644C368.567 328.116 368.397 327.852 368.132 327.622C367.871 327.389 367.519 327.273 367.076 327.273C366.684 327.273 366.34 327.375 366.044 327.58C365.752 327.781 365.523 328.067 365.358 328.436C365.196 328.803 365.115 329.233 365.115 329.727C365.115 330.233 365.195 330.673 365.354 331.048C365.516 331.423 365.743 331.714 366.036 331.922C366.331 332.129 366.678 332.233 367.076 332.233C367.337 332.233 367.574 332.188 367.787 332.097C368 332.006 368.181 331.875 368.328 331.705C368.476 331.534 368.581 331.33 368.644 331.091H369.65C369.593 331.477 369.452 331.825 369.228 332.135C369.006 332.442 368.712 332.686 368.346 332.868C367.982 333.047 367.559 333.136 367.076 333.136ZM373.046 333.153C372.631 333.153 372.255 333.075 371.917 332.919C371.578 332.76 371.31 332.531 371.111 332.233C370.912 331.932 370.813 331.568 370.813 331.142C370.813 330.767 370.887 330.463 371.034 330.23C371.182 329.994 371.38 329.81 371.627 329.676C371.874 329.543 372.147 329.443 372.445 329.378C372.746 329.31 373.049 329.256 373.353 329.216C373.75 329.165 374.073 329.126 374.32 329.101C374.57 329.072 374.752 329.026 374.865 328.96C374.982 328.895 375.04 328.781 375.04 328.619V328.585C375.04 328.165 374.925 327.838 374.695 327.605C374.468 327.372 374.123 327.256 373.659 327.256C373.179 327.256 372.803 327.361 372.53 327.571C372.257 327.781 372.066 328.006 371.955 328.244L371 327.903C371.171 327.506 371.398 327.196 371.682 326.974C371.969 326.75 372.282 326.594 372.62 326.506C372.961 326.415 373.296 326.369 373.625 326.369C373.836 326.369 374.077 326.395 374.35 326.446C374.625 326.494 374.891 326.595 375.147 326.749C375.405 326.902 375.62 327.134 375.79 327.443C375.961 327.753 376.046 328.168 376.046 328.688V333H375.04V332.114H374.989C374.921 332.256 374.807 332.408 374.648 332.57C374.489 332.732 374.277 332.869 374.013 332.983C373.749 333.097 373.426 333.153 373.046 333.153ZM373.199 332.25C373.597 332.25 373.932 332.172 374.205 332.016C374.48 331.859 374.688 331.658 374.827 331.411C374.969 331.163 375.04 330.903 375.04 330.631V329.71C374.998 329.761 374.904 329.808 374.759 329.851C374.617 329.891 374.452 329.926 374.265 329.957C374.08 329.986 373.9 330.011 373.723 330.034C373.55 330.054 373.409 330.071 373.301 330.085C373.04 330.119 372.796 330.175 372.569 330.251C372.344 330.325 372.162 330.437 372.023 330.588C371.887 330.736 371.819 330.937 371.819 331.193C371.819 331.543 371.948 331.807 372.206 331.986C372.468 332.162 372.799 332.25 373.199 332.25ZM380.728 326.455V327.307H377.336V326.455H380.728ZM378.325 324.886H379.33V331.125C379.33 331.409 379.371 331.622 379.454 331.764C379.539 331.903 379.647 331.997 379.778 332.045C379.911 332.091 380.052 332.114 380.2 332.114C380.31 332.114 380.401 332.108 380.472 332.097C380.543 332.082 380.6 332.071 380.643 332.062L380.847 332.966C380.779 332.991 380.684 333.017 380.562 333.043C380.44 333.071 380.285 333.085 380.097 333.085C379.813 333.085 379.535 333.024 379.262 332.902C378.992 332.78 378.768 332.594 378.589 332.344C378.413 332.094 378.325 331.778 378.325 331.398V324.886ZM384.83 333.136C384.239 333.136 383.72 332.996 383.274 332.714C382.831 332.433 382.484 332.04 382.234 331.534C381.987 331.028 381.864 330.437 381.864 329.761C381.864 329.08 381.987 328.484 382.234 327.976C382.484 327.467 382.831 327.072 383.274 326.791C383.72 326.51 384.239 326.369 384.83 326.369C385.42 326.369 385.938 326.51 386.381 326.791C386.827 327.072 387.173 327.467 387.42 327.976C387.67 328.484 387.795 329.08 387.795 329.761C387.795 330.437 387.67 331.028 387.42 331.534C387.173 332.04 386.827 332.433 386.381 332.714C385.938 332.996 385.42 333.136 384.83 333.136ZM384.83 332.233C385.278 332.233 385.648 332.118 385.938 331.888C386.227 331.658 386.442 331.355 386.581 330.98C386.72 330.605 386.79 330.199 386.79 329.761C386.79 329.324 386.72 328.916 386.581 328.538C386.442 328.161 386.227 327.855 385.938 327.622C385.648 327.389 385.278 327.273 384.83 327.273C384.381 327.273 384.011 327.389 383.722 327.622C383.432 327.855 383.217 328.161 383.078 328.538C382.939 328.916 382.869 329.324 382.869 329.761C382.869 330.199 382.939 330.605 383.078 330.98C383.217 331.355 383.432 331.658 383.722 331.888C384.011 332.118 384.381 332.233 384.83 332.233ZM389.331 333V326.455H390.302V327.443H390.37C390.49 327.119 390.706 326.857 391.018 326.655C391.331 326.453 391.683 326.352 392.075 326.352C392.149 326.352 392.241 326.354 392.352 326.357C392.463 326.359 392.547 326.364 392.603 326.369V327.392C392.569 327.384 392.491 327.371 392.369 327.354C392.25 327.334 392.123 327.324 391.99 327.324C391.672 327.324 391.387 327.391 391.137 327.524C390.89 327.655 390.694 327.837 390.549 328.07C390.407 328.3 390.336 328.562 390.336 328.858V333H389.331ZM398.432 327.92L397.528 328.176C397.472 328.026 397.388 327.879 397.277 327.737C397.169 327.592 397.021 327.473 396.834 327.379C396.646 327.286 396.406 327.239 396.114 327.239C395.713 327.239 395.379 327.331 395.112 327.516C394.848 327.697 394.716 327.929 394.716 328.21C394.716 328.46 394.807 328.658 394.989 328.803C395.17 328.947 395.455 329.068 395.841 329.165L396.812 329.403C397.398 329.545 397.834 329.763 398.121 330.055C398.408 330.345 398.551 330.719 398.551 331.176C398.551 331.551 398.443 331.886 398.227 332.182C398.014 332.477 397.716 332.71 397.332 332.881C396.949 333.051 396.503 333.136 395.994 333.136C395.327 333.136 394.774 332.991 394.337 332.702C393.899 332.412 393.622 331.989 393.506 331.432L394.46 331.193C394.551 331.545 394.723 331.81 394.976 331.986C395.232 332.162 395.565 332.25 395.977 332.25C396.446 332.25 396.818 332.151 397.094 331.952C397.372 331.75 397.511 331.509 397.511 331.227C397.511 331 397.432 330.81 397.273 330.656C397.114 330.5 396.869 330.384 396.54 330.307L395.449 330.051C394.849 329.909 394.409 329.689 394.128 329.391C393.849 329.089 393.71 328.713 393.71 328.261C393.71 327.892 393.814 327.565 394.021 327.281C394.232 326.997 394.517 326.774 394.878 326.612C395.241 326.45 395.653 326.369 396.114 326.369C396.761 326.369 397.27 326.511 397.639 326.795C398.011 327.08 398.276 327.455 398.432 327.92Z" fill="white"/>
<g filter="url(#filter14_f_5_126)">
<ellipse cx="294.5" cy="210" rx="170.5" ry="101" fill="#30DFBC" fill-opacity="0.1"/>
</g>
<defs>
<filter id="filter0_i_5_126" x="173.306" y="272.238" width="107.387" height="125.525" filterUnits="userSpaceOnUse" color-interpolation-filters="sRGB">
<feFlood flood-opacity="0" result="BackgroundImageFix"/>
<feBlend mode="normal" in="SourceGraphic" in2="BackgroundImageFix" result="shape"/>
<feColorMatrix in="SourceAlpha" type="matrix" values="0 0 0 0 0 0 0 0 0 0 0 0 0 0 0 0 0 0 127 0" result="hardAlpha"/>
<feOffset dy="4"/>
<feGaussianBlur stdDeviation="12"/>
<feComposite in2="hardAlpha" operator="arithmetic" k2="-1" k3="1"/>
<feColorMatrix type="matrix" values="0 0 0 0 1 0 0 0 0 1 0 0 0 0 1 0 0 0 0.05 0"/>
<feBlend mode="normal" in2="shape" result="effect1_innerShadow_5_126"/>
</filter>
<filter id="filter1_i_5_126" x="330.306" y="272.238" width="107.387" height="125.525" filterUnits="userSpaceOnUse" color-interpolation-filters="sRGB">
<feFlood flood-opacity="0" result="BackgroundImageFix"/>
<feBlend mode="normal" in="SourceGraphic" in2="BackgroundImageFix" result="shape"/>
<feColorMatrix in="SourceAlpha" type="matrix" values="0 0 0 0 0 0 0 0 0 0 0 0 0 0 0 0 0 0 127 0" result="hardAlpha"/>
<feOffset dy="4"/>
<feGaussianBlur stdDeviation="12"/>
<feComposite in2="hardAlpha" operator="arithmetic" k2="-1" k3="1"/>
<feColorMatrix type="matrix" values="0 0 0 0 1 0 0 0 0 1 0 0 0 0 1 0 0 0 0.05 0"/>
<feBlend mode="normal" in2="shape" result="effect1_innerShadow_5_126"/>
</filter>
<filter id="filter2_i_5_126" x="173.306" y="5.23761" width="107.387" height="125.525" filterUnits="userSpaceOnUse" color-interpolation-filters="sRGB">
<feFlood flood-opacity="0" result="BackgroundImageFix"/>
<feBlend mode="normal" in="SourceGraphic" in2="BackgroundImageFix" result="shape"/>
<feColorMatrix in="SourceAlpha" type="matrix" values="0 0 0 0 0 0 0 0 0 0 0 0 0 0 0 0 0 0 127 0" result="hardAlpha"/>
<feOffset dy="4"/>
<feGaussianBlur stdDeviation="12"/>
<feComposite in2="hardAlpha" operator="arithmetic" k2="-1" k3="1"/>
<feColorMatrix type="matrix" values="0 0 0 0 1 0 0 0 0 1 0 0 0 0 1 0 0 0 0.05 0"/>
<feBlend mode="normal" in2="shape" result="effect1_innerShadow_5_126"/>
</filter>
<filter id="filter3_i_5_126" x="330.306" y="5.23761" width="107.387" height="125.525" filterUnits="userSpaceOnUse" color-interpolation-filters="sRGB">
<feFlood flood-opacity="0" result="BackgroundImageFix"/>
<feBlend mode="normal" in="SourceGraphic" in2="BackgroundImageFix" result="shape"/>
<feColorMatrix in="SourceAlpha" type="matrix" values="0 0 0 0 0 0 0 0 0 0 0 0 0 0 0 0 0 0 127 0" result="hardAlpha"/>
<feOffset dy="4"/>
<feGaussianBlur stdDeviation="12"/>
<feComposite in2="hardAlpha" operator="arithmetic" k2="-1" k3="1"/>
<feColorMatrix type="matrix" values="0 0 0 0 1 0 0 0 0 1 0 0 0 0 1 0 0 0 0.05 0"/>
<feBlend mode="normal" in2="shape" result="effect1_innerShadow_5_126"/>
</filter>
<filter id="filter4_i_5_126" x="92.3064" y="139.238" width="107.387" height="125.525" filterUnits="userSpaceOnUse" color-interpolation-filters="sRGB">
<feFlood flood-opacity="0" result="BackgroundImageFix"/>
<feBlend mode="normal" in="SourceGraphic" in2="BackgroundImageFix" result="shape"/>
<feColorMatrix in="SourceAlpha" type="matrix" values="0 0 0 0 0 0 0 0 0 0 0 0 0 0 0 0 0 0 127 0" result="hardAlpha"/>
<feOffset dy="4"/>
<feGaussianBlur stdDeviation="12"/>
<feComposite in2="hardAlpha" operator="arithmetic" k2="-1" k3="1"/>
<feColorMatrix type="matrix" values="0 0 0 0 1 0 0 0 0 1 0 0 0 0 1 0 0 0 0.05 0"/>
<feBlend mode="normal" in2="shape" result="effect1_innerShadow_5_126"/>
</filter>
<filter id="filter5_i_5_126" x="235.316" y="124.238" width="133.368" height="155.525" filterUnits="userSpaceOnUse" color-interpolation-filters="sRGB">
<feFlood flood-opacity="0" result="BackgroundImageFix"/>
<feBlend mode="normal" in="SourceGraphic" in2="BackgroundImageFix" result="shape"/>
<feColorMatrix in="SourceAlpha" type="matrix" values="0 0 0 0 0 0 0 0 0 0 0 0 0 0 0 0 0 0 127 0" result="hardAlpha"/>
<feOffset dy="4"/>
<feGaussianBlur stdDeviation="12"/>
<feComposite in2="hardAlpha" operator="arithmetic" k2="-1" k3="1"/>
<feColorMatrix type="matrix" values="0 0 0 0 1 0 0 0 0 1 0 0 0 0 1 0 0 0 0.05 0"/>
<feBlend mode="normal" in2="shape" result="effect1_innerShadow_5_126"/>
</filter>
<filter id="filter6_i_5_126" x="404.306" y="139.238" width="107.387" height="125.525" filterUnits="userSpaceOnUse" color-interpolation-filters="sRGB">
<feFlood flood-opacity="0" result="BackgroundImageFix"/>
<feBlend mode="normal" in="SourceGraphic" in2="BackgroundImageFix" result="shape"/>
<feColorMatrix in="SourceAlpha" type="matrix" values="0 0 0 0 0 0 0 0 0 0 0 0 0 0 0 0 0 0 127 0" result="hardAlpha"/>
<feOffset dy="4"/>
<feGaussianBlur stdDeviation="12"/>
<feComposite in2="hardAlpha" operator="arithmetic" k2="-1" k3="1"/>
<feColorMatrix type="matrix" values="0 0 0 0 1 0 0 0 0 1 0 0 0 0 1 0 0 0 0.05 0"/>
<feBlend mode="normal" in2="shape" result="effect1_innerShadow_5_126"/>
</filter>
<filter id="filter7_i_5_126" x="168.306" y="268.238" width="107.387" height="125.525" filterUnits="userSpaceOnUse" color-interpolation-filters="sRGB">
<feFlood flood-opacity="0" result="BackgroundImageFix"/>
<feBlend mode="normal" in="SourceGraphic" in2="BackgroundImageFix" result="shape"/>
<feColorMatrix in="SourceAlpha" type="matrix" values="0 0 0 0 0 0 0 0 0 0 0 0 0 0 0 0 0 0 127 0" result="hardAlpha"/>
<feOffset dy="4"/>
<feGaussianBlur stdDeviation="12"/>
<feComposite in2="hardAlpha" operator="arithmetic" k2="-1" k3="1"/>
<feColorMatrix type="matrix" values="0 0 0 0 1 0 0 0 0 1 0 0 0 0 1 0 0 0 0.05 0"/>
<feBlend mode="normal" in2="shape" result="effect1_innerShadow_5_126"/>
</filter>
<filter id="filter8_i_5_126" x="325.306" y="268.238" width="107.387" height="125.525" filterUnits="userSpaceOnUse" color-interpolation-filters="sRGB">
<feFlood flood-opacity="0" result="BackgroundImageFix"/>
<feBlend mode="normal" in="SourceGraphic" in2="BackgroundImageFix" result="shape"/>
<feColorMatrix in="SourceAlpha" type="matrix" values="0 0 0 0 0 0 0 0 0 0 0 0 0 0 0 0 0 0 127 0" result="hardAlpha"/>
<feOffset dy="4"/>
<feGaussianBlur stdDeviation="12"/>
<feComposite in2="hardAlpha" operator="arithmetic" k2="-1" k3="1"/>
<feColorMatrix type="matrix" values="0 0 0 0 1 0 0 0 0 1 0 0 0 0 1 0 0 0 0.05 0"/>
<feBlend mode="normal" in2="shape" result="effect1_innerShadow_5_126"/>
</filter>
<filter id="filter9_i_5_126" x="168.306" y="1.23761" width="107.387" height="125.525" filterUnits="userSpaceOnUse" color-interpolation-filters="sRGB">
<feFlood flood-opacity="0" result="BackgroundImageFix"/>
<feBlend mode="normal" in="SourceGraphic" in2="BackgroundImageFix" result="shape"/>
<feColorMatrix in="SourceAlpha" type="matrix" values="0 0 0 0 0 0 0 0 0 0 0 0 0 0 0 0 0 0 127 0" result="hardAlpha"/>
<feOffset dy="4"/>
<feGaussianBlur stdDeviation="12"/>
<feComposite in2="hardAlpha" operator="arithmetic" k2="-1" k3="1"/>
<feColorMatrix type="matrix" values="0 0 0 0 1 0 0 0 0 1 0 0 0 0 1 0 0 0 0.05 0"/>
<feBlend mode="normal" in2="shape" result="effect1_innerShadow_5_126"/>
</filter>
<filter id="filter10_i_5_126" x="325.306" y="1.23761" width="107.387" height="125.525" filterUnits="userSpaceOnUse" color-interpolation-filters="sRGB">
<feFlood flood-opacity="0" result="BackgroundImageFix"/>
<feBlend mode="normal" in="SourceGraphic" in2="BackgroundImageFix" result="shape"/>
<feColorMatrix in="SourceAlpha" type="matrix" values="0 0 0 0 0 0 0 0 0 0 0 0 0 0 0 0 0 0 127 0" result="hardAlpha"/>
<feOffset dy="4"/>
<feGaussianBlur stdDeviation="12"/>
<feComposite in2="hardAlpha" operator="arithmetic" k2="-1" k3="1"/>
<feColorMatrix type="matrix" values="0 0 0 0 1 0 0 0 0 1 0 0 0 0 1 0 0 0 0.05 0"/>
<feBlend mode="normal" in2="shape" result="effect1_innerShadow_5_126"/>
</filter>
<filter id="filter11_i_5_126" x="87.3064" y="135.238" width="107.387" height="125.525" filterUnits="userSpaceOnUse" color-interpolation-filters="sRGB">
<feFlood flood-opacity="0" result="BackgroundImageFix"/>
<feBlend mode="normal" in="SourceGraphic" in2="BackgroundImageFix" result="shape"/>
<feColorMatrix in="SourceAlpha" type="matrix" values="0 0 0 0 0 0 0 0 0 0 0 0 0 0 0 0 0 0 127 0" result="hardAlpha"/>
<feOffset dy="4"/>
<feGaussianBlur stdDeviation="12"/>
<feComposite in2="hardAlpha" operator="arithmetic" k2="-1" k3="1"/>
<feColorMatrix type="matrix" values="0 0 0 0 1 0 0 0 0 1 0 0 0 0 1 0 0 0 0.05 0"/>
<feBlend mode="normal" in2="shape" result="effect1_innerShadow_5_126"/>
</filter>
<filter id="filter12_i_5_126" x="230.316" y="120.238" width="133.368" height="155.525" filterUnits="userSpaceOnUse" color-interpolation-filters="sRGB">
<feFlood flood-opacity="0" result="BackgroundImageFix"/>
<feBlend mode="normal" in="SourceGraphic" in2="BackgroundImageFix" result="shape"/>
<feColorMatrix in="SourceAlpha" type="matrix" values="0 0 0 0 0 0 0 0 0 0 0 0 0 0 0 0 0 0 127 0" result="hardAlpha"/>
<feOffset dy="4"/>
<feGaussianBlur stdDeviation="12"/>
<feComposite in2="hardAlpha" operator="arithmetic" k2="-1" k3="1"/>
<feColorMatrix type="matrix" values="0 0 0 0 1 0 0 0 0 1 0 0 0 0 1 0 0 0 0.05 0"/>
<feBlend mode="normal" in2="shape" result="effect1_innerShadow_5_126"/>
</filter>
<filter id="filter13_i_5_126" x="399.306" y="135.238" width="107.387" height="125.525" filterUnits="userSpaceOnUse" color-interpolation-filters="sRGB">
<feFlood flood-opacity="0" result="BackgroundImageFix"/>
<feBlend mode="normal" in="SourceGraphic" in2="BackgroundImageFix" result="shape"/>
<feColorMatrix in="SourceAlpha" type="matrix" values="0 0 0 0 0 0 0 0 0 0 0 0 0 0 0 0 0 0 127 0" result="hardAlpha"/>
<feOffset dy="4"/>
<feGaussianBlur stdDeviation="12"/>
<feComposite in2="hardAlpha" operator="arithmetic" k2="-1" k3="1"/>
<feColorMatrix type="matrix" values="0 0 0 0 1 0 0 0 0 1 0 0 0 0 1 0 0 0 0.05 0"/>
<feBlend mode="normal" in2="shape" result="effect1_innerShadow_5_126"/>
</filter>
<filter id="filter14_f_5_126" x="0" y="-15" width="589" height="450" filterUnits="userSpaceOnUse" color-interpolation-filters="sRGB">
<feFlood flood-opacity="0" result="BackgroundImageFix"/>
<feBlend mode="normal" in="SourceGraphic" in2="BackgroundImageFix" result="shape"/>
<feGaussianBlur stdDeviation="62" result="effect1_foregroundBlur_5_126"/>
</filter>
<linearGradient id="paint0_linear_5_126" x1="239" y1="106" x2="237.288" y2="107.034" gradientUnits="userSpaceOnUse">
<stop stop-color="#15F3C0"/>
<stop offset="1" stop-color="#09022B"/>
</linearGradient>
<linearGradient id="paint1_linear_5_126" x1="188" y1="197" x2="188.039" y2="198.999" gradientUnits="userSpaceOnUse">
<stop stop-color="#15F3C0"/>
<stop offset="1" stop-color="#09022B"/>
</linearGradient>
<linearGradient id="paint2_linear_5_126" x1="248" y1="290.167" x2="249.751" y2="291.133" gradientUnits="userSpaceOnUse">
<stop stop-color="#15F3C0"/>
<stop offset="1" stop-color="#09022B"/>
</linearGradient>
<linearGradient id="paint3_linear_5_126" x1="358.5" y1="290.167" x2="360.212" y2="289.134" gradientUnits="userSpaceOnUse">
<stop stop-color="#15F3C0"/>
<stop offset="1" stop-color="#09022B"/>
</linearGradient>
<linearGradient id="paint4_linear_5_126" x1="409.5" y1="199.167" x2="409.461" y2="197.168" gradientUnits="userSpaceOnUse">
<stop stop-color="#15F3C0"/>
<stop offset="1" stop-color="#09022B"/>
</linearGradient>
<linearGradient id="paint5_linear_5_126" x1="349.5" y1="106" x2="347.749" y2="105.034" gradientUnits="userSpaceOnUse">
<stop stop-color="#15F3C0"/>
<stop offset="1" stop-color="#09022B"/>
</linearGradient>
<linearGradient id="paint6_linear_5_126" x1="165" y1="271" x2="289" y2="395" gradientUnits="userSpaceOnUse">
<stop stop-color="#15F3C0"/>
<stop offset="1" stop-color="#09022B"/>
</linearGradient>
<linearGradient id="paint7_linear_5_126" x1="322" y1="271" x2="446" y2="395" gradientUnits="userSpaceOnUse">
<stop stop-color="#15F3C0"/>
<stop offset="1" stop-color="#09022B"/>
</linearGradient>
<linearGradient id="paint8_linear_5_126" x1="165" y1="4" x2="289" y2="128" gradientUnits="userSpaceOnUse">
<stop stop-color="#15F3C0"/>
<stop offset="1" stop-color="#09022B"/>
</linearGradient>
<linearGradient id="paint9_linear_5_126" x1="322" y1="4" x2="446" y2="128" gradientUnits="userSpaceOnUse">
<stop stop-color="#15F3C0"/>
<stop offset="1" stop-color="#09022B"/>
</linearGradient>
<linearGradient id="paint10_linear_5_126" x1="84" y1="138" x2="208" y2="262" gradientUnits="userSpaceOnUse">
<stop stop-color="#15F3C0"/>
<stop offset="1" stop-color="#09022B"/>
</linearGradient>
<linearGradient id="paint11_linear_5_126" x1="225" y1="123" x2="379" y2="277" gradientUnits="userSpaceOnUse">
<stop stop-color="#15F3C0"/>
<stop offset="1" stop-color="#09022B"/>
</linearGradient>
<linearGradient id="paint12_linear_5_126" x1="396" y1="138" x2="520" y2="262" gradientUnits="userSpaceOnUse">
<stop stop-color="#15F3C0"/>
<stop offset="1" stop-color="#09022B"/>
</linearGradient>
<linearGradient id="paint13_linear_5_126" x1="160" y1="267" x2="284" y2="391" gradientUnits="userSpaceOnUse">
<stop stop-color="#15F3C0"/>
<stop offset="1" stop-color="#09022B"/>
</linearGradient>
<linearGradient id="paint14_linear_5_126" x1="317" y1="267" x2="441" y2="391" gradientUnits="userSpaceOnUse">
<stop stop-color="#15F3C0"/>
<stop offset="1" stop-color="#09022B"/>
</linearGradient>
<linearGradient id="paint15_linear_5_126" x1="160" y1="0" x2="284" y2="124" gradientUnits="userSpaceOnUse">
<stop stop-color="#15F3C0"/>
<stop offset="1" stop-color="#09022B"/>
</linearGradient>
<linearGradient id="paint16_linear_5_126" x1="317" y1="0" x2="441" y2="124" gradientUnits="userSpaceOnUse">
<stop stop-color="#15F3C0"/>
<stop offset="1" stop-color="#09022B"/>
</linearGradient>
<linearGradient id="paint17_linear_5_126" x1="79" y1="134" x2="203" y2="258" gradientUnits="userSpaceOnUse">
<stop stop-color="#15F3C0"/>
<stop offset="1" stop-color="#09022B"/>
</linearGradient>
<linearGradient id="paint18_linear_5_126" x1="220" y1="119" x2="374" y2="273" gradientUnits="userSpaceOnUse">
<stop stop-color="#15F3C0"/>
<stop offset="1" stop-color="#09022B"/>
</linearGradient>
<linearGradient id="paint19_linear_5_126" x1="391" y1="134" x2="515" y2="258" gradientUnits="userSpaceOnUse">
<stop stop-color="#15F3C0"/>
<stop offset="1" stop-color="#09022B"/>
</linearGradient>
</defs>
</svg>
