<svg width="140" height="33" viewBox="0 0 140 33" fill="none" xmlns="http://www.w3.org/2000/svg">
<g opacity="0.96">
<path d="M5.34557 13.704V3.57237H13.6859V5.91712H8.19604V7.40792H10.6091C11.8861 7.40792 12.8614 7.66844 13.535 8.1895C14.2087 8.71055 14.5455 9.45354 14.5455 10.4185V10.4474C14.5455 11.4606 14.1936 12.2566 13.4898 12.8356C12.796 13.4145 11.7705 13.704 10.4131 13.704H5.34557ZM8.19604 11.4606H10.2773C10.7097 11.4606 11.0415 11.3786 11.2727 11.2145C11.5141 11.0408 11.6347 10.8044 11.6347 10.5053V10.4764C11.6347 9.86846 11.1722 9.56451 10.2472 9.56451H8.19604V11.4606Z" fill="white"/>
<path d="M14.8849 13.704L19.3642 3.5H22.1845L26.6789 13.704H23.5419L22.7878 11.8803H18.7006L17.9465 13.704H14.8849ZM19.5602 9.69477H21.9281L20.7517 6.82897L19.5602 9.69477Z" fill="white"/>
<path d="M27.7033 13.704V3.57237H30.6292L30.6141 7.39344H31.142L34.3393 3.57237H37.8383L33.4495 8.47897L38.0495 13.704H34.4298L31.142 9.82503H30.6141L30.6292 13.704H27.7033Z" fill="white"/>
<path d="M48.7629 13.704H45.837V7.92897L41.3426 13.704H38.7938V3.57237H41.7197V9.13029L46.0632 3.57237H48.7629V13.704Z" fill="white"/>
<path d="M50.6354 13.704V3.57237H59.1265V5.94607H53.5311V7.49476H58.5987V9.70924H53.5311V11.3158H59.2019V13.704H50.6354Z" fill="white"/>
<path d="M60.7096 13.704V3.57237H66.124C67.401 3.57237 68.3612 3.87149 69.0047 4.46974C69.4571 4.92325 69.6834 5.47326 69.6834 6.11975V6.1487C69.6834 7.21011 69.1404 7.96274 68.0545 8.40661C68.7382 8.61889 69.2561 8.92284 69.608 9.31845C69.9699 9.70442 70.1509 10.2255 70.1509 10.8816V10.9106C70.1509 11.7886 69.799 12.4737 69.0952 12.9658C68.4014 13.4579 67.4211 13.704 66.1542 13.704H60.7096ZM66.8027 6.72765V6.6987C66.8027 6.11975 66.3603 5.83028 65.4755 5.83028H63.5601V7.61055H65.4001C66.3352 7.61055 66.8027 7.31625 66.8027 6.72765ZM67.225 10.5198V10.4908C67.225 9.88293 66.7474 9.57898 65.7922 9.57898H63.5601V11.4461H65.8224C66.7575 11.4461 67.225 11.1373 67.225 10.5198Z" fill="white"/>
<path d="M24.8263 26.9716V16.84H34.3732V26.9716H31.4473V19.3295H27.7522V26.9716H24.8263Z" fill="white"/>
<path d="M35.4113 26.9716L39.8907 16.7676H42.711L47.2054 26.9716H44.0684L43.3143 25.1479H39.2271L38.473 26.9716H35.4113ZM40.0867 22.9624H42.4546L41.2782 20.0966L40.0867 22.9624Z" fill="white"/>
<path d="M48.2298 26.9716V16.84H52.7694C54.1067 16.84 55.1674 17.1536 55.9517 17.7808C56.746 18.408 57.1432 19.2764 57.1432 20.3861V20.415C57.1432 21.5826 56.7259 22.4848 55.8914 23.1216C55.0568 23.7584 53.9659 24.0769 52.6186 24.0769H51.1557V26.9716H48.2298ZM51.1557 21.8769H52.5583C53.0711 21.8769 53.4783 21.7562 53.7799 21.515C54.0815 21.2738 54.2324 20.9505 54.2324 20.5453V20.5163C54.2324 20.0918 54.0815 19.7685 53.7799 19.5466C53.4883 19.315 53.0761 19.1992 52.5432 19.1992H51.1557V21.8769Z" fill="white"/>
<path d="M60.9566 26.9716V19.3005H57.8045V16.84H67.0497V19.3005H63.8825V26.9716H60.9566Z" fill="white"/>
<path d="M68.3341 26.9716V16.84H71.2599V20.6321H75.0153V16.84H77.9412V26.9716H75.0153V23.1216H71.2599V26.9716H68.3341Z" fill="white"/>
<path d="M79.8075 26.9716V16.84H88.2986V19.2137H82.7032V20.7624H87.7707V22.9769H82.7032V24.5834H88.374V26.9716H79.8075Z" fill="white"/>
<path d="M89.8817 26.9716V16.84H94.4214C95.7586 16.84 96.8194 17.1536 97.6036 17.7808C98.398 18.408 98.7951 19.2764 98.7951 20.3861V20.415C98.7951 21.5826 98.3778 22.4848 97.5433 23.1216C96.7088 23.7584 95.6179 24.0769 94.2705 24.0769H92.8076V26.9716H89.8817ZM92.8076 21.8769H94.2102C94.723 21.8769 95.1302 21.7562 95.4318 21.515C95.7335 21.2738 95.8843 20.9505 95.8843 20.5453V20.5163C95.8843 20.0918 95.7335 19.7685 95.4318 19.5466C95.1403 19.315 94.728 19.1992 94.1951 19.1992H92.8076V21.8769Z" fill="white"/>
<path d="M100.03 26.9716V16.84H102.955V19.865H104.509C105.876 19.865 106.957 20.1641 107.752 20.7624C108.546 21.351 108.943 22.2097 108.943 23.3387V23.3677C108.943 24.4966 108.541 25.3795 107.736 26.0164C106.932 26.6532 105.826 26.9716 104.418 26.9716H100.03ZM110.074 26.9716V16.84H113V26.9716H110.074ZM102.955 24.6413H104.343C104.866 24.6413 105.278 24.5304 105.58 24.3084C105.881 24.0865 106.032 23.7729 106.032 23.3677V23.3387C106.032 22.5089 105.474 22.094 104.358 22.094H102.955V24.6413Z" fill="white"/>
<path d="M5.80592 32.2926C5.03525 31.8656 4.77119 30.9198 5.21614 30.1802L10.6946 21.0739C11.1395 20.3343 12.125 20.0809 12.8957 20.5079C13.6664 20.9349 13.9304 21.8806 13.4855 22.6202L8.00701 31.7266C7.56206 32.4662 6.5766 32.7196 5.80592 32.2926Z" fill="white"/>
<path d="M13.3469 28.6741C12.5762 28.2471 12.3121 27.3014 12.7571 26.5618L18.2355 17.4555C18.6805 16.7159 19.6659 16.4625 20.4366 16.8895C21.2073 17.3165 21.4713 18.2622 21.0264 19.0018L15.548 28.1081C15.103 28.8477 14.1175 29.1011 13.3469 28.6741Z" fill="white"/>
</g>
</svg>
